<?xml version="1.0" standalone="no"?>
<!DOCTYPE svg PUBLIC "-//W3C//DTD SVG 20010904//EN"
 "http://www.w3.org/TR/2001/REC-SVG-20010904/DTD/svg10.dtd">
<svg version="1.0" xmlns="http://www.w3.org/2000/svg"
 width="1280.000000pt" height="648.000000pt" viewBox="0 0 1280.000000 648.000000"
 preserveAspectRatio="xMidYMid meet">

<g transform="translate(0.000000,648.000000) scale(0.100000,-0.100000)"
fill="#000000" stroke="none">
<path d="M72 6253 c-12 -23 -28 -97 -42 -193 -6 -41 -15 -87 -20 -101 -5 -18
-4 -31 3 -38 9 -9 12 -119 13 -394 1 -210 5 -474 9 -587 l7 -205 169 0 169 0
11 35 c6 19 14 155 18 302 3 160 10 271 16 277 8 8 409 16 593 11 8 0 12 -18
12 -54 0 -29 5 -78 11 -107 6 -30 10 -103 10 -164 -1 -113 14 -246 30 -277 9
-16 26 -18 138 -18 101 0 131 3 141 15 19 23 26 333 19 810 -5 256 -4 449 2
479 5 27 9 75 9 107 0 88 -14 94 -203 93 -124 -1 -152 -4 -165 -18 -14 -14
-17 -45 -19 -209 -3 -216 -8 -325 -16 -333 -3 -3 -92 2 -199 11 -106 9 -233
15 -282 13 -89 -3 -90 -3 -97 22 -4 14 -7 135 -8 271 -1 176 -4 248 -13 257
-8 8 -58 12 -160 12 -130 0 -148 -2 -156 -17z m48 -8 c0 -11 11 -15 41 -15 33
0 40 -3 35 -15 -5 -14 -2 -14 24 0 16 8 51 15 77 15 l48 0 3 -184 c3 -178 2
-185 -18 -196 -11 -6 -18 -15 -16 -19 3 -4 -15 -23 -39 -41 -58 -44 -50 -52
11 -11 57 37 64 38 64 7 0 -16 -12 -34 -32 -50 -24 -19 -28 -26 -15 -26 9 0
17 -6 17 -13 0 -18 -32 -46 -117 -102 -40 -26 -76 -52 -79 -57 -9 -15 2 -8
115 70 89 62 95 65 125 54 18 -7 46 -12 62 -13 21 0 13 -5 -31 -18 -33 -9 -67
-21 -75 -26 -8 -5 -17 -10 -20 -10 -3 0 -48 -22 -99 -49 -62 -32 -96 -45 -99
-37 -3 9 -8 9 -17 1 -21 -17 -23 -2 -16 115 5 99 8 110 26 113 11 2 27 6 35 9
12 4 11 6 -4 12 -16 6 -12 12 30 42 85 61 175 140 169 148 -6 11 -55 1 -55
-10 0 -5 5 -9 11 -9 6 0 -16 -22 -49 -50 -33 -27 -63 -50 -66 -50 -4 0 -23
-11 -43 -25 -20 -13 -40 -22 -45 -19 -13 8 -8 156 7 199 9 24 11 41 5 43 -15
5 -12 35 6 60 14 20 14 22 -3 22 -14 1 -12 6 12 28 17 15 41 35 55 44 l25 17
-33 -9 c-19 -5 -40 -14 -47 -20 -18 -15 -26 9 -18 54 5 35 33 52 33 21z m1190
-55 c16 -9 20 -21 20 -63 0 -57 -6 -70 -34 -80 -10 -4 -16 -13 -13 -20 3 -8
-7 -21 -21 -30 -15 -8 -49 -39 -77 -68 l-50 -52 45 34 c25 18 67 54 94 79 l48
45 -6 -53 c-6 -42 -14 -61 -40 -87 -23 -22 -37 -30 -44 -23 -13 13 -48 -5 -62
-32 -9 -16 -8 -20 6 -20 29 0 103 40 124 67 l20 26 -6 -94 c-4 -52 -9 -97 -13
-101 -3 -3 -33 -20 -66 -37 -75 -38 -99 -55 -67 -46 12 3 22 2 22 -3 0 -10
-107 -110 -136 -128 -11 -6 -20 -19 -22 -28 -3 -14 0 -14 20 4 13 11 64 55
113 97 50 42 100 85 113 97 16 14 25 17 33 9 15 -15 2 -103 -14 -103 -17 0
-147 -64 -172 -84 -25 -20 -6 -14 59 19 52 26 77 24 52 -4 -9 -10 -16 -22 -16
-26 0 -5 22 13 50 40 55 55 70 48 51 -23 -10 -34 -16 -41 -44 -46 -19 -3 -42
-13 -53 -21 -16 -13 -13 -12 20 1 42 17 56 13 36 -11 -8 -9 -8 -15 -2 -15 6 0
14 5 17 10 14 23 26 7 23 -32 -3 -37 -6 -43 -28 -46 -37 -4 -80 -23 -80 -34 0
-6 7 -7 15 -4 8 3 22 9 30 12 29 12 15 -14 -30 -55 -24 -22 -42 -41 -39 -41
13 0 124 84 124 93 0 8 3 8 10 1 7 -7 8 -28 4 -52 -5 -31 -11 -42 -24 -42 -25
0 -50 -10 -50 -21 0 -4 8 -6 18 -2 16 6 16 5 0 -14 -26 -29 -22 -34 11 -15 33
18 35 17 45 -15 6 -18 2 -25 -18 -35 -19 -8 -25 -17 -20 -30 3 -10 1 -18 -4
-18 -6 0 -12 -6 -15 -14 -4 -11 4 -9 29 6 30 18 34 18 34 4 0 -21 -37 -56 -84
-81 -41 -22 -57 -14 -31 15 10 11 16 22 13 25 -8 8 -88 -82 -88 -100 0 -9 -4
-13 -10 -10 -5 3 -10 1 -10 -4 0 -14 27 -14 35 -1 7 11 79 50 92 50 4 0 -2 -6
-13 -14 -11 -8 -34 -32 -49 -53 -32 -42 -24 -37 67 40 33 28 62 45 69 41 15
-9 7 -170 -10 -187 -14 -14 -164 -17 -178 -4 -4 5 3 17 17 27 14 10 22 22 18
26 -4 4 -15 1 -24 -7 -14 -11 -18 -11 -30 5 -18 26 -28 116 -16 158 5 20 8 47
5 60 -3 17 4 35 24 58 21 25 23 32 10 27 -36 -14 -51 18 -54 117 -5 110 -8
130 -29 151 -14 13 -14 18 -2 32 11 15 11 16 -7 8 -11 -4 -55 -19 -99 -32 -73
-21 -96 -23 -325 -24 -203 0 -250 -3 -270 -16 -17 -11 -20 -17 -11 -23 18 -11
5 -27 -39 -49 -20 -11 -44 -28 -52 -37 -11 -14 -5 -13 26 5 22 13 52 27 68 32
26 7 27 6 27 -26 0 -38 -5 -43 -70 -67 l-45 -17 40 6 c39 6 40 5 23 -14 -23
-25 -23 -41 0 -21 35 30 42 30 42 1 0 -26 -7 -32 -65 -57 -36 -16 -68 -33 -71
-38 -4 -5 8 -3 24 6 38 20 72 22 54 4 -24 -24 -11 -29 23 -8 l35 22 0 -70 c0
-39 -3 -78 -6 -87 -6 -15 -72 -53 -129 -75 -20 -8 -22 -6 -17 13 5 21 5 21
-19 6 -13 -9 -25 -23 -27 -32 -3 -13 3 -14 35 -7 21 5 60 18 86 30 54 24 69
20 61 -18 -3 -15 -7 -37 -10 -49 -4 -22 -9 -23 -97 -23 -134 0 -137 2 -137 64
l0 52 91 37 c104 43 119 45 93 16 l-19 -22 33 17 c17 9 32 18 32 20 0 3 3 11
6 20 9 24 -7 20 -110 -24 -106 -45 -111 -46 -102 -24 5 14 4 15 -8 5 -12 -10
-15 -4 -21 43 -4 31 -4 68 1 83 4 16 7 31 6 34 -1 4 8 15 18 24 11 10 20 25
20 34 0 11 -8 6 -24 -14 l-24 -30 -11 28 c-15 38 -14 150 1 182 14 31 52 52
172 94 68 23 92 28 97 19 6 -9 16 -6 36 12 15 14 45 34 65 44 21 10 45 27 55
38 16 18 16 19 -3 12 -10 -4 -30 -16 -43 -26 -13 -10 -31 -18 -39 -18 -19 0
49 73 122 132 45 36 53 39 90 32 72 -11 71 -19 -3 -53 -39 -18 -73 -37 -77
-42 -13 -22 6 -19 53 5 41 22 49 24 51 11 3 -12 17 -4 53 30 38 36 55 46 72
41 12 -3 32 -6 45 -6 37 0 17 -17 -69 -60 -43 -22 -79 -45 -79 -50 0 -6 3 -10
8 -10 14 0 87 42 109 63 32 29 42 13 12 -20 -13 -14 2 -5 35 21 43 35 65 46
80 42 11 -3 26 -6 33 -6 7 0 16 -13 20 -29 l8 -30 83 53 c45 29 114 65 152 80
74 29 93 49 38 40 l-33 -5 28 21 c25 20 54 60 43 60 -3 0 -32 -23 -65 -50
-113 -94 -167 -120 -186 -90 -9 14 16 80 30 80 7 0 20 10 31 21 l19 22 -42
-22 -43 -21 0 25 c0 15 4 24 8 21 15 -9 82 14 82 29 0 19 -13 26 -29 16 -7 -5
-22 -6 -33 -3 -15 4 -18 12 -16 40 3 32 7 36 56 55 60 23 69 38 17 30 -19 -3
-35 -2 -35 3 0 10 62 50 126 82 43 22 71 49 60 59 -3 4 -16 -3 -29 -14 -12
-11 -50 -37 -84 -57 -34 -20 -73 -50 -87 -66 -26 -32 -29 -31 -40 12 -11 48 8
75 81 112 81 42 79 45 -7 11 -35 -14 -65 -25 -67 -25 -11 0 0 71 13 84 33 34
201 44 254 16z m-856 -622 c-62 -66 -77 -76 -154 -105 -47 -17 -109 -44 -138
-60 l-53 -28 -20 24 c-28 34 -24 46 23 74 24 13 75 43 115 65 80 46 119 57 60
17 -20 -14 -37 -30 -37 -36 0 -11 6 -8 67 33 23 15 46 28 50 28 5 0 15 6 21
12 13 13 124 56 131 51 2 -2 -27 -36 -65 -75z"/>
<path d="M173 6149 c-50 -29 -76 -52 -32 -29 38 21 99 39 99 30 0 -5 -21 -24
-47 -41 -27 -18 -51 -37 -55 -43 -17 -25 -5 -25 35 1 47 30 117 93 117 105 0
19 -69 5 -117 -23z"/>
<path d="M249 6040 c-21 -18 -22 -19 -4 -14 21 6 3 -12 -104 -106 -53 -48 -65
-72 -31 -63 11 3 18 9 15 13 -3 5 5 10 17 12 15 2 24 11 26 26 2 13 11 26 20
29 29 10 121 82 132 103 10 18 8 20 -19 20 -16 0 -39 -9 -52 -20z"/>
<path d="M193 5795 c-18 -8 -33 -16 -33 -19 0 -6 54 10 77 23 28 16 -5 13 -44
-4z"/>
<path d="M158 5690 c-45 -46 -61 -80 -38 -80 16 0 128 58 135 70 9 14 3 13
-51 -10 -26 -11 -48 -19 -50 -17 -2 2 12 19 31 37 33 32 44 51 28 49 -5 0 -29
-22 -55 -49z"/>
<path d="M1206 6165 c-7 -19 5 -19 30 0 19 14 19 14 -2 15 -12 0 -24 -7 -28
-15z"/>
<path d="M1220 6121 c-38 -12 -113 -52 -107 -57 6 -6 137 52 137 60 0 3 -1 6
-2 5 -2 0 -14 -4 -28 -8z"/>
<path d="M1200 5790 c-8 -5 -10 -10 -5 -10 6 0 17 5 25 10 8 5 11 10 5 10 -5
0 -17 -5 -25 -10z"/>
<path d="M1128 5763 c7 -3 16 -2 19 1 4 3 -2 6 -13 5 -11 0 -14 -3 -6 -6z"/>
<path d="M1075 5608 c-40 -23 -127 -102 -116 -106 10 -3 161 104 161 114 0 8
-26 3 -45 -8z"/>
<path d="M927 5593 c-12 -12 -7 -22 8 -17 8 4 15 10 15 15 0 11 -14 12 -23 2z"/>
<path d="M840 5543 c-52 -30 -82 -54 -76 -61 5 -4 126 77 126 84 0 6 -3 5 -50
-23z"/>
<path d="M594 5534 c-18 -14 -18 -15 4 -4 12 6 22 13 22 15 0 8 -5 6 -26 -11z"/>
<path d="M700 5480 c-40 -48 -40 -61 1 -40 10 6 19 17 19 24 0 7 9 25 21 40
38 48 2 27 -41 -24z"/>
<path d="M605 5494 c-27 -13 -58 -21 -67 -18 -12 3 -18 0 -18 -10 0 -8 -5 -18
-12 -22 -8 -5 -9 -1 -5 12 6 15 3 14 -13 -5 -41 -47 -20 -47 77 2 42 22 107
67 93 66 -3 0 -27 -11 -55 -25z"/>
<path d="M832 5443 c-39 -19 -36 -28 7 -18 32 7 65 35 40 35 -8 0 -29 -8 -47
-17z"/>
<path d="M1155 5430 c-10 -11 -16 -23 -13 -26 7 -6 38 24 38 37 0 13 -5 11
-25 -11z"/>
<path d="M1186 5411 c-3 -5 -21 -16 -41 -25 -19 -9 -35 -21 -35 -27 0 -6 9 -4
23 3 12 7 24 12 27 11 3 -1 13 10 23 23 10 13 16 24 13 24 -3 0 -7 -4 -10 -9z"/>
<path d="M279 5394 c-33 -17 -57 -44 -40 -44 17 0 58 29 65 46 3 8 4 14 3 13
-1 -1 -14 -7 -28 -15z"/>
<path d="M1235 5380 c-3 -5 -1 -10 4 -10 6 0 11 5 11 10 0 6 -2 10 -4 10 -3 0
-8 -4 -11 -10z"/>
<path d="M240 5314 c-38 -19 -74 -32 -86 -29 -21 5 -53 -19 -42 -31 7 -6 145
54 179 78 36 25 22 20 -51 -18z"/>
<path d="M1105 5263 c-4 -11 0 -11 18 -2 31 16 32 18 8 16 -11 -1 -23 -7 -26
-14z"/>
<path d="M183 5218 c-13 -6 -23 -15 -23 -20 0 -10 36 7 45 22 7 12 7 12 -22
-2z"/>
<path d="M1174 5175 c-16 -12 -16 -14 -3 -15 9 0 22 7 29 15 16 19 0 19 -26 0z"/>
<path d="M248 5133 c-29 -34 -30 -48 -2 -21 15 15 26 30 23 33 -3 3 -13 -3
-21 -12z"/>
<path d="M172 5070 c-20 -27 -21 -30 -5 -30 22 0 56 20 34 20 -8 0 -11 7 -8
20 7 26 5 25 -21 -10z"/>
<path d="M190 4999 c0 -5 5 -7 10 -4 6 3 10 8 10 11 0 2 -4 4 -10 4 -5 0 -10
-5 -10 -11z"/>
<path d="M1270 4892 c-31 -15 -91 -55 -87 -58 5 -6 88 24 104 37 26 22 14 35
-17 21z"/>
<path d="M101 5404 c0 -11 3 -14 6 -6 3 7 2 16 -1 19 -3 4 -6 -2 -5 -13z"/>
<path d="M4523 6077 c-70 -7 -103 -14 -103 -23 0 -7 16 -32 36 -56 20 -23 44
-59 53 -78 8 -19 35 -57 58 -83 48 -55 267 -381 339 -506 45 -78 49 -90 47
-145 -11 -368 -13 -512 -6 -571 8 -66 9 -70 38 -77 50 -12 295 -32 302 -24 12
12 15 287 5 471 l-10 180 61 114 c40 73 80 133 112 165 63 63 103 117 117 156
5 17 14 30 18 30 15 0 68 95 126 225 32 72 69 141 83 154 43 44 23 51 -139 55
-80 1 -151 1 -157 -2 -16 -5 -17 -34 -1 -50 9 -9 7 -17 -10 -35 -12 -13 -22
-31 -22 -40 0 -9 -5 -19 -10 -22 -6 -4 -20 -25 -32 -48 -11 -23 -36 -60 -54
-81 -19 -22 -34 -45 -34 -52 0 -7 -3 -14 -7 -16 -5 -1 -21 -22 -36 -46 -15
-23 -38 -47 -51 -52 -14 -5 -29 -25 -40 -53 -9 -25 -23 -48 -31 -50 -15 -6
-99 78 -162 163 -65 87 -213 337 -213 359 0 11 -8 25 -18 30 -29 15 -150 19
-259 8z m135 -64 c-12 -15 -90 -53 -107 -53 -4 0 -14 12 -22 28 -7 15 -15 30
-17 34 -4 9 61 14 116 9 37 -3 41 -5 30 -18z m102 -14 c0 -5 -4 -9 -10 -9 -5
0 -10 7 -10 16 0 8 5 12 10 9 6 -3 10 -10 10 -16z m816 6 c-21 -16 -32 -13
-21 4 3 6 14 11 23 11 15 -1 15 -2 -2 -15z m162 -7 c-3 -7 -26 -12 -55 -12
-40 -1 -49 2 -41 11 14 17 101 18 96 1z m-998 -36 c0 -8 -108 -82 -119 -82 -3
0 -13 5 -21 10 -13 8 -13 11 -1 19 11 7 10 10 -5 13 -13 3 -4 9 28 20 26 9 56
14 67 11 12 -3 21 -1 21 6 0 6 7 11 15 11 8 0 15 -4 15 -8z m941 -84 c-17 -40
-40 -88 -51 -105 -20 -33 -20 -33 -100 -33 -87 0 -97 11 -26 29 47 12 71 31
38 31 -11 0 -36 -7 -55 -15 -20 -8 -47 -15 -59 -15 l-23 0 26 26 c18 18 41 27
80 32 62 9 92 5 83 -10 -4 -6 3 -8 17 -6 14 2 25 11 27 22 4 18 -1 19 -55 13
-32 -3 -70 -3 -83 0 -21 6 -7 15 90 62 63 31 116 53 118 49 2 -4 -11 -40 -27
-80z m-106 61 c0 -14 -82 -65 -91 -56 -10 10 16 47 44 61 31 17 47 16 47 -5z
m-775 -18 c16 -31 13 -37 -42 -78 -77 -56 -79 -57 -89 -42 -17 27 -8 39 38 52
26 8 49 19 51 26 3 9 -2 11 -17 7 -11 -3 -30 -9 -41 -12 -35 -10 -22 14 23 40
51 31 63 32 77 7z m11 -95 c-9 -11 -6 -12 14 -8 14 2 25 0 25 -6 0 -11 -18
-15 -105 -26 l-40 -5 55 29 c64 34 66 34 51 16z m59 -46 c0 -6 -28 -30 -62
-55 l-61 -46 -24 22 c-52 50 -15 75 130 88 9 0 17 -4 17 -9z m43 -64 c-1 -17
3 -26 13 -26 8 0 14 -4 14 -10 0 -11 -40 -50 -51 -50 -4 0 -21 -11 -38 -25
l-30 -26 -25 34 c-45 58 -29 88 62 122 47 17 57 14 55 -19z m607 5 c18 -2 7
-9 -40 -25 -79 -28 -140 -40 -140 -28 0 27 82 62 135 57 11 -2 31 -3 45 -4z
m60 -23 c-1 -7 -11 -25 -23 -40 -20 -25 -30 -28 -107 -33 l-85 -5 75 36 c69
33 113 51 133 53 4 1 7 -5 7 -11z m-591 -65 c10 -21 10 -28 1 -31 -9 -3 -9 -6
1 -12 18 -12 0 -31 -61 -69 -47 -29 -50 -29 -69 -13 -35 29 -29 43 24 63 l50
19 -45 -6 c-54 -7 -47 4 27 47 61 34 58 34 72 2z m425 -47 c-40 -30 -1 -25 80
9 16 7 15 1 -10 -46 -25 -46 -38 -58 -94 -86 -36 -17 -96 -42 -134 -53 -43
-14 -64 -25 -57 -30 9 -5 5 -13 -15 -29 -43 -34 -2 -26 64 12 104 59 129 66
97 24 -7 -11 -12 -24 -9 -31 6 -17 -55 -74 -64 -59 -5 8 -17 5 -42 -8 l-35
-20 43 7 c35 5 42 3 42 -11 0 -17 -18 -56 -30 -65 -4 -3 -11 -18 -17 -35 -5
-16 -16 -30 -24 -30 -8 0 -26 -10 -39 -23 -14 -13 -56 -39 -93 -57 -78 -39
-94 -30 -58 30 25 42 26 55 7 55 -8 0 -17 14 -21 30 -4 17 -13 30 -21 30 -8 0
-14 5 -14 10 0 6 24 10 53 10 31 0 61 6 73 15 17 13 14 14 -42 15 -103 0 -103
27 -2 84 40 23 22 34 -21 12 -36 -19 -45 -20 -35 -5 3 6 26 20 50 31 24 10 44
23 44 28 0 14 -5 13 -61 -15 -47 -24 -69 -26 -69 -5 0 6 16 16 36 25 19 8 33
19 29 24 -6 11 22 29 66 41 30 9 33 5 30 -32 -3 -29 32 -21 60 13 24 29 31 32
119 41 104 10 137 21 50 17 -42 -2 -55 0 -55 11 0 7 15 18 32 22 18 5 40 20
49 33 9 14 26 25 37 25 20 0 20 0 1 -14z m-59 -5 c5 -8 -52 -31 -78 -31 -14 0
4 21 27 30 28 12 44 12 51 1z m-299 -36 c19 -29 19 -28 -21 -43 -29 -11 -29
-11 8 -6 20 4 37 4 37 1 0 -3 -20 -17 -45 -31 -25 -15 -45 -30 -45 -34 0 -4
-17 -7 -38 -7 -20 0 -36 4 -34 8 1 4 2 11 2 15 0 5 10 14 23 20 20 11 19 11
-10 6 -21 -3 -33 -1 -33 5 0 6 6 11 14 11 7 0 36 18 62 40 27 21 52 39 56 40
4 0 15 -11 24 -25z m176 -464 c3 -23 -3 -37 -29 -65 -18 -19 -33 -37 -33 -40
0 -4 16 0 36 9 l35 15 -3 -27 c-2 -22 -11 -30 -43 -39 -35 -10 -37 -12 -15
-16 23 -4 21 -6 -28 -37 -68 -44 -60 -53 11 -12 67 38 77 39 77 2 0 -38 -40
-85 -89 -104 -21 -9 -55 -27 -76 -41 -51 -35 -67 -34 -63 5 3 27 10 34 46 48
51 20 45 31 -15 31 -45 0 -49 4 -34 44 8 19 21 27 66 37 63 14 90 36 31 25
-50 -9 -45 1 12 26 26 12 41 23 33 26 -17 6 -112 -38 -105 -49 2 -4 -5 -13
-16 -19 -17 -9 -20 -8 -20 9 0 30 50 81 90 91 l35 9 -35 -3 c-19 -2 -44 -7
-55 -11 -19 -7 -19 -7 -3 11 15 15 160 99 179 103 4 0 9 -12 11 -28z m2 -313
c3 -13 6 -26 6 -30 0 -8 -204 -118 -220 -118 -6 0 -10 8 -8 17 2 11 25 23 68
36 75 22 101 39 45 30 -55 -9 -42 13 31 54 32 18 62 33 65 33 4 0 9 -10 13
-22z m9 -78 c-3 -11 -19 -33 -36 -50 l-31 -30 27 0 c30 0 45 -23 29 -43 -8
-10 -31 -11 -101 -3 -96 9 -108 20 -38 32 38 6 40 8 20 17 -13 5 -23 13 -23
16 0 6 138 79 152 80 3 1 4 -8 1 -19z"/>
<path d="M4863 5690 c-31 -13 -29 -20 7 -20 20 0 30 5 30 15 0 17 -5 18 -37 5z"/>
<path d="M5143 5179 c-18 -5 -35 -13 -38 -18 -6 -11 66 7 80 20 11 11 1 11
-42 -2z"/>
<path d="M5071 5111 c-23 -15 3 -20 34 -6 29 13 29 13 5 14 -14 0 -31 -3 -39
-8z"/>
<path d="M3614 5833 c-31 -71 -72 -196 -80 -243 -9 -54 -147 -345 -164 -345
-14 0 -109 204 -110 235 0 8 -23 53 -52 100 -28 47 -76 132 -107 190 l-56 105
-50 -2 c-27 -2 -107 -3 -177 -3 -131 -1 -152 -7 -126 -38 26 -30 64 -103 138
-262 39 -85 90 -191 112 -235 22 -44 73 -165 113 -270 40 -104 82 -213 95
-240 l22 -51 -85 -201 c-106 -250 -191 -479 -183 -499 4 -11 33 -14 148 -14
79 0 157 -4 174 -9 17 -5 36 -6 42 -2 15 9 37 64 52 131 7 30 71 183 142 340
72 157 136 308 144 337 7 29 40 108 72 175 33 68 79 175 102 238 23 63 80 191
125 285 78 159 115 256 115 296 0 29 -55 39 -222 39 l-158 0 -26 -57z m345
-24 c-10 -20 -16 -21 -93 -15 -45 4 -85 3 -89 -1 -4 -4 16 -15 45 -24 l53 -17
-45 -12 c-25 -6 -79 -23 -120 -36 -41 -13 -76 -21 -78 -19 -8 8 10 65 29 90
14 16 30 25 49 25 22 0 28 4 24 15 -5 13 11 15 115 15 121 0 122 0 110 -21z
m-935 -11 c15 -25 -5 -41 -56 -44 -24 -1 -59 -5 -78 -9 -32 -6 -29 -3 30 34
69 44 86 47 104 19z m-143 -15 c-42 -25 -45 -25 -58 -8 -22 31 -16 35 45 35
l57 0 -44 -27z m126 -78 c-46 -40 -103 -69 -123 -61 -20 8 -29 36 -17 55 12
18 82 39 138 40 l40 0 -38 -34z m81 -43 c3 -16 -4 -25 -23 -32 -37 -14 -165
-28 -158 -17 9 15 147 78 163 75 8 -2 16 -13 18 -26z m792 -34 l-22 -53 -46 0
c-26 0 -69 -4 -97 -9 -42 -8 -48 -7 -38 5 6 8 42 29 80 48 37 18 84 41 103 51
19 10 36 17 38 15 3 -2 -6 -28 -18 -57z m-175 -11 c-92 -58 -93 -67 -8 -68 37
0 77 -4 88 -8 18 -7 17 -10 -13 -25 -40 -21 -209 -59 -223 -50 -15 9 -1 43 47
111 54 75 65 82 129 83 l49 0 -69 -43z m-625 -25 c0 -4 -35 -24 -77 -44 -70
-33 -78 -34 -90 -19 -19 25 -11 54 17 62 35 10 150 11 150 1z m59 -43 c-19
-12 -109 -39 -128 -39 -23 1 11 26 74 56 44 21 51 22 58 7 6 -10 5 -18 -4 -24z
m671 -65 c0 -37 -49 -123 -80 -139 -14 -7 -45 -16 -70 -20 -75 -12 -83 -27
-12 -22 34 3 60 1 57 -4 -3 -4 -43 -20 -88 -34 -168 -52 -202 -83 -78 -71 l66
7 -45 -41 c-38 -35 -41 -40 -20 -35 31 8 132 76 138 93 3 8 -13 12 -55 13
l-58 1 55 18 c54 18 100 25 100 15 0 -17 -63 -142 -77 -152 -9 -7 -34 -13 -55
-13 -22 0 -38 -5 -38 -11 0 -8 14 -10 43 -6 48 7 37 0 -57 -34 -33 -12 -78
-39 -101 -60 -23 -21 -62 -46 -86 -54 -24 -9 -65 -30 -92 -47 -40 -26 -50 -29
-58 -17 -18 28 -3 44 61 63 36 11 59 21 52 24 -7 2 -27 -1 -44 -7 -37 -13 -47
-7 -31 18 11 17 9 18 -22 8 -65 -19 -90 18 -34 52 29 18 227 76 234 69 2 -2
-24 -23 -58 -46 -71 -49 -62 -54 26 -14 73 34 107 66 89 84 -9 9 -20 10 -43 1
l-30 -12 7 46 c3 24 16 55 28 68 12 13 32 49 45 82 13 32 30 68 37 80 16 25
103 73 132 73 11 0 48 11 83 25 80 30 79 30 79 -1z m-668 3 c-6 -7 -42 -28
-81 -47 -69 -33 -71 -33 -91 -15 -30 27 -21 48 25 61 57 18 161 18 147 1z m58
-26 c16 -30 12 -41 -13 -41 -13 0 -50 -9 -82 -20 -93 -32 -96 -23 -10 29 44
27 83 50 87 50 4 1 12 -8 18 -18z m-30 -86 c-29 -31 -103 -75 -125 -75 -20 0
-31 28 -17 42 11 11 137 57 156 58 5 0 -1 -11 -14 -25z m76 -29 c3 -14 3 -29
0 -35 -8 -12 -61 -27 -131 -36 l-50 -7 20 20 c19 20 131 82 147 82 4 0 10 -11
14 -24z m-31 -76 c-3 -5 -27 -22 -53 -37 -26 -14 -54 -32 -63 -40 -14 -11 -17
-9 -28 14 -15 32 -8 38 69 53 30 6 60 13 65 15 16 6 16 5 10 -5z m80 -40 c8
-16 15 -31 15 -34 0 -9 -94 -34 -154 -41 -31 -4 -56 -5 -56 -3 0 13 126 88
177 107 1 1 9 -12 18 -29z m-35 -78 c0 -16 -124 -82 -134 -72 -19 19 9 44 65
62 64 20 69 21 69 10z m88 -24 c-8 -23 -71 -58 -104 -58 -19 0 -34 4 -34 8 0
12 100 62 123 62 10 0 17 -5 15 -12z m248 -150 c-18 -40 -44 -101 -57 -135
-20 -53 -26 -60 -41 -52 -19 10 -78 -13 -78 -31 0 -28 -218 -126 -237 -106
-17 17 41 54 147 93 68 25 39 24 -42 -1 -64 -20 -68 -6 -7 29 27 16 49 33 49
38 0 5 -6 7 -12 4 -7 -3 -30 -12 -50 -21 -26 -11 -39 -13 -44 -5 -10 17 16 37
82 64 43 18 52 25 34 25 -17 1 7 17 82 55 59 30 110 61 115 69 7 12 64 43 85
45 4 1 -8 -32 -26 -71z m-137 -340 c-22 -62 -52 -134 -66 -160 l-25 -47 -67
-6 c-67 -6 -120 -16 -156 -31 -19 -7 -19 -7 -2 13 10 11 46 28 80 38 85 24
153 60 160 85 7 26 -7 26 -102 0 -112 -31 -118 -19 -11 23 101 40 160 71 160
86 0 18 -29 19 -97 5 -130 -29 -142 -27 -53 10 47 19 110 48 140 65 30 17 60
31 67 31 7 0 -3 -42 -28 -112z m-106 -18 c-14 -12 -214 -82 -220 -77 -7 7 24
23 125 62 77 30 119 36 95 15z m-123 -149 c-90 -46 -140 -60 -140 -38 0 8 7
20 15 27 22 18 125 49 165 49 33 0 31 -2 -40 -38z m81 -75 c-7 -8 -42 -34 -78
-57 -53 -35 -72 -42 -107 -40 -25 1 -49 -4 -61 -14 -19 -15 -16 -16 44 -12 54
3 61 2 45 -10 -26 -19 -13 -16 62 12 36 14 70 25 75 25 16 0 10 -26 -12 -54
-19 -24 -23 -25 -38 -13 -19 17 -114 15 -178 -4 -23 -7 -45 -10 -49 -6 -11 11
5 74 26 100 20 25 104 55 205 75 77 14 79 14 66 -2z m29 -32 c0 -23 -24 -44
-50 -44 -37 0 -38 10 -2 32 27 17 52 23 52 12z m-248 -193 c-67 -55 -29 -55
79 0 45 22 83 38 86 35 10 -10 -8 -97 -21 -102 -15 -6 -254 10 -261 18 -13 13
11 41 58 68 41 23 55 27 71 18 19 -10 18 -12 -12 -37z"/>
<path d="M3631 5435 c-35 -8 -66 -17 -69 -20 -3 -3 26 -5 64 -5 l69 -1 -76
-39 c-42 -21 -79 -46 -82 -54 -9 -22 15 -20 42 3 12 11 58 38 102 61 121 63
100 87 -50 55z"/>
<path d="M3360 4980 c0 -13 20 -13 40 0 12 8 9 10 -12 10 -16 0 -28 -4 -28
-10z"/>
<path d="M3406 4893 c-28 -3 -36 -7 -26 -13 12 -7 9 -15 -15 -40 l-29 -31 50
21 c27 12 63 32 79 45 l30 24 -25 -1 c-14 -1 -43 -3 -64 -5z"/>
<path d="M2080 5870 c-55 -13 -196 -76 -243 -109 -63 -43 -133 -122 -147 -167
-7 -21 -19 -49 -27 -62 -27 -43 -53 -172 -53 -264 0 -72 6 -105 31 -181 17
-50 35 -96 40 -102 5 -5 9 -18 9 -30 0 -36 38 -83 92 -114 29 -17 61 -31 71
-31 10 0 33 -11 50 -24 40 -30 116 -52 227 -66 206 -25 332 -3 436 76 l31 24
-5 107 c-5 135 -13 146 -73 106 -42 -27 -50 -28 -182 -31 -109 -3 -148 0 -190
14 -122 40 -170 78 -184 144 -5 26 -2 30 15 30 46 0 402 31 472 41 120 17 147
26 162 57 21 40 22 129 3 228 -31 165 -66 215 -199 279 -91 45 -227 86 -275
84 -14 -1 -42 -5 -61 -9z m40 -50 c-8 -5 -26 -10 -40 -10 -20 0 -22 2 -10 10
8 5 26 10 40 10 20 0 22 -2 10 -10z m192 -26 c21 -13 4 -24 -36 -24 -24 0 -46
-4 -48 -9 -1 -5 -30 -12 -63 -16 -69 -8 -66 3 8 30 26 10 50 22 53 27 6 9 69
3 86 -8z m-367 -34 c3 -5 17 -10 31 -10 14 0 23 -4 20 -9 -7 -10 -187 -84
-192 -78 -8 8 108 104 128 106 4 1 10 -3 13 -9z m458 -4 c35 -14 97 -68 97
-84 0 -5 -12 -10 -27 -10 -16 0 -50 -3 -77 -6 -48 -5 -48 -5 -30 16 11 11 30
24 43 30 17 6 21 12 14 19 -8 8 -22 8 -49 -1 -27 -9 -39 -10 -42 -2 -2 7 -15
4 -35 -9 -64 -38 -59 -15 5 32 46 33 56 34 101 15z m-221 -46 c-25 -21 -82
-40 -119 -40 -12 0 -33 -11 -47 -25 -14 -14 -32 -25 -41 -25 -9 0 -13 -4 -10
-10 9 -15 -58 -70 -72 -58 -7 6 -35 7 -67 3 -31 -4 -56 -5 -56 -2 0 8 131 47
157 47 11 0 20 7 20 15 0 11 -12 15 -49 15 -26 0 -48 4 -48 10 0 14 35 30 64
30 14 0 29 7 33 15 6 10 31 16 78 19 39 2 81 9 95 15 14 5 39 10 55 10 l30 0
-23 -19z m138 -36 c0 -10 -69 -34 -99 -34 -64 0 -67 14 -6 26 69 14 105 16
105 8z m-250 -44 c-20 -13 -33 -13 -25 0 3 6 14 10 23 10 15 0 15 -2 2 -10z
m360 5 c0 -2 -23 -16 -51 -31 -47 -23 -53 -24 -67 -10 -18 18 -13 21 58 35 60
12 60 12 60 6z m-620 -15 c0 -14 -38 -32 -58 -28 -13 3 -10 8 13 21 35 19 45
21 45 7z m735 -16 c32 -34 33 -79 3 -95 -28 -15 -181 -23 -173 -9 4 6 37 26
73 45 61 31 64 34 37 36 -42 3 -46 3 -82 -5 -22 -5 -33 -4 -33 3 0 6 8 11 18
12 9 0 35 9 57 19 55 25 72 24 100 -6z m-321 -8 c42 -18 76 -61 76 -97 l0 -29
-175 0 c-152 0 -175 2 -175 16 0 41 53 84 133 110 55 17 100 17 141 0z m196
-41 c0 -2 -14 -12 -31 -21 -23 -12 -34 -13 -43 -4 -8 8 -7 13 4 20 15 10 70
14 70 5z m-613 -41 c3 -9 -89 -54 -110 -54 -13 0 -7 38 9 55 18 18 95 18 101
-1z m83 -26 c0 -13 -4 -28 -8 -34 -8 -13 -98 -34 -145 -34 l-32 0 40 25 c122
74 145 80 145 43z m682 -23 c14 -32 5 -42 -45 -50 -41 -7 -52 9 -12 19 14 4
25 13 25 20 0 11 -6 12 -37 0 -76 -27 -84 -12 -10 17 58 23 66 23 79 -6z
m-412 -55 c-11 -7 -11 -10 -2 -10 23 0 2 -20 -49 -45 -27 -14 -49 -27 -49 -30
0 -8 39 4 88 29 55 28 68 41 52 51 -6 4 -8 11 -5 16 9 14 43 11 52 -6 8 -13
18 -14 62 -5 111 21 122 3 15 -24 -34 -9 -77 -23 -95 -31 -30 -14 -31 -15 -9
-14 69 3 68 -14 -2 -36 -29 -10 -57 -21 -62 -26 -14 -13 37 -11 71 2 15 7 38
11 51 10 13 0 37 6 53 15 17 8 47 17 67 19 20 1 48 6 61 10 19 6 22 5 16 -5
-6 -10 1 -12 33 -7 22 4 48 10 57 13 13 5 16 2 13 -17 -3 -26 -18 -31 -158
-49 -99 -12 -432 -31 -439 -24 -10 10 17 24 79 40 86 21 111 37 45 28 -27 -4
-58 -7 -67 -6 -10 0 -18 -3 -18 -9 0 -5 -15 -9 -34 -9 -22 0 -40 -7 -48 -17
-22 -30 -134 -67 -126 -43 2 7 14 15 27 17 37 5 61 22 61 43 0 13 12 25 36 35
35 14 39 35 6 35 -10 0 -64 -27 -122 -60 -58 -33 -114 -60 -126 -60 -29 0 -46
40 -33 78 11 31 43 42 119 41 35 0 35 0 -20 -25 -46 -21 -52 -27 -38 -35 13
-7 31 -2 71 21 29 16 61 30 70 30 8 0 23 7 32 16 23 23 4 33 -46 24 -37 -7
-61 2 -40 14 10 6 100 15 246 25 99 6 135 0 105 -19z m404 -36 c26 -10 7 -24
-32 -24 -37 0 -37 0 -12 14 14 8 26 14 27 15 1 1 8 -2 17 -5z m-159 -13 c-6
-6 -30 -13 -55 -16 -44 -6 -44 -6 -20 9 28 17 90 22 75 7z m-497 -206 c-9 -9
-91 -9 -94 0 -2 6 16 19 39 31 l42 21 9 -24 c4 -13 6 -26 4 -28z m-113 26 c-8
-7 -100 -41 -112 -41 -2 0 -3 7 -3 15 0 8 10 17 23 19 12 3 31 7 42 9 37 8 59
7 50 -2z m33 -62 l67 0 -69 -34 c-38 -18 -76 -40 -84 -49 -19 -19 -25 -18 113
-17 l100 1 -24 -20 -25 -21 30 7 c16 4 42 13 57 21 27 13 47 11 47 -7 0 -4
-24 -14 -52 -21 -29 -6 -67 -18 -85 -26 -38 -16 -46 -16 -38 -3 3 5 -11 2 -31
-6 -56 -23 -86 -15 -108 29 -28 58 -32 113 -10 138 10 11 24 17 32 14 7 -3 44
-5 80 -6z m116 -38 c9 -7 16 -17 16 -22 0 -12 -58 -21 -114 -17 l-50 3 54 26
c58 29 70 30 94 10z m600 -100 c4 -5 -8 -21 -25 -35 -17 -14 -26 -26 -20 -26
5 0 13 5 16 10 10 15 32 12 39 -6 4 -11 -8 -33 -34 -63 -22 -25 -47 -54 -55
-63 -29 -34 -36 -18 -10 25 25 44 33 87 16 87 -11 0 -95 -69 -100 -82 -4 -12
35 8 44 22 10 16 25 12 25 -6 0 -9 -16 -32 -35 -51 -34 -34 -37 -35 -99 -32
-36 2 -68 0 -72 -4 -10 -10 -86 -9 -102 2 -10 6 -7 12 13 25 18 12 25 24 22
37 -6 24 1 24 33 -1 14 -11 29 -20 33 -20 12 0 85 53 132 95 l40 36 -76 -40
c-83 -44 -109 -50 -109 -24 0 9 3 14 6 10 11 -11 59 20 73 46 11 20 30 30 90
45 83 22 147 27 155 13z m-429 -11 c-12 -19 -66 -41 -93 -38 l-27 3 35 23 c35
22 97 31 85 12z m175 -14 c0 -5 -187 -116 -195 -116 -4 0 5 14 19 31 14 17 26
34 26 38 0 13 92 50 123 51 15 0 27 -2 27 -4z m-364 -31 c-58 -54 -7 -62 119
-20 39 13 71 22 72 21 1 -1 -15 -22 -37 -46 -38 -43 -51 -80 -30 -80 6 0 27 7
47 15 48 20 50 19 23 -10 -15 -16 -34 -25 -55 -25 -36 0 -150 37 -211 68 -39
20 -71 49 -63 56 4 4 139 44 153 45 5 1 -3 -10 -18 -24z m622 -113 c-7 -8 -14
-10 -21 -3 -7 7 -6 15 3 26 10 12 15 13 21 3 4 -7 3 -18 -3 -26z"/>
<path d="M2080 5395 c-7 -8 -15 -13 -19 -10 -4 2 -20 -5 -37 -16 -33 -22 -20
-24 40 -7 51 14 58 20 41 35 -10 10 -16 9 -25 -2z"/>
<path d="M2326 4794 c-5 -14 -4 -15 9 -4 17 14 19 20 6 20 -5 0 -12 -7 -15
-16z"/>
<path d="M7883 5708 c-7 -11 -7 -238 1 -528 2 -52 11 -124 21 -160 24 -89 23
-164 -2 -198 -16 -22 -32 -29 -79 -35 -121 -17 -156 -5 -234 79 -63 68 -88
134 -106 271 -19 156 -19 278 0 387 32 179 35 176 -175 176 l-159 0 -7 -27
c-12 -42 -8 -495 5 -603 26 -217 100 -399 199 -491 92 -85 151 -109 286 -116
105 -5 116 -4 174 21 l62 26 83 -16 c54 -10 121 -14 196 -12 139 4 141 5 130
110 -4 40 -10 114 -13 163 -4 50 -17 155 -31 235 -27 162 -36 421 -20 591 l9
96 -64 12 c-83 14 -214 31 -244 31 -13 0 -27 -6 -32 -12z m137 -67 c-13 -26
-85 -43 -85 -21 0 14 44 38 73 39 19 1 21 -2 12 -18z m-690 5 c0 -7 -100 -76
-110 -76 -6 0 -10 18 -10 40 l0 40 60 0 c33 0 60 -2 60 -4z m105 -58 c-11
-104 -21 -126 -63 -137 -122 -32 -156 -40 -159 -37 -2 2 14 14 34 28 21 14 70
55 108 90 68 64 69 66 53 85 -24 26 -23 33 7 33 26 0 26 -1 20 -62z m725 53
c19 -6 -53 -30 -89 -31 -41 0 -43 1 -28 18 11 12 29 17 64 16 26 -1 50 -2 53
-3z m-35 -60 c-6 -5 -49 -34 -97 -65 l-88 -56 0 44 c0 38 3 45 28 55 60 24
177 41 157 22z m-771 -22 c-9 -15 -124 -99 -136 -99 -5 0 -8 15 -6 32 3 30 9
35 58 55 60 24 95 29 84 12z m803 -40 c-3 -22 -7 -42 -9 -43 -1 -2 -27 0 -57
3 l-54 6 53 38 c30 20 58 37 63 37 5 0 7 -18 4 -41z m-67 -78 c0 -9 -54 -54
-101 -83 -34 -21 -49 -8 -49 43 l0 38 53 4 c28 2 62 4 75 5 12 1 22 -2 22 -7z
m48 -86 c-2 -1 -30 -5 -63 -8 l-60 -6 45 39 c25 22 52 46 60 55 13 14 15 11
18 -31 2 -25 2 -47 0 -49z m-808 56 c-14 -26 -90 -91 -107 -91 -10 0 -13 11
-11 38 3 36 4 37 63 54 33 9 61 17 63 17 1 1 -2 -8 -8 -18z m80 -30 c0 -48 -1
-50 -37 -61 -21 -7 -59 -24 -86 -38 -26 -14 -50 -22 -54 -18 -11 10 151 166
173 166 2 0 4 -22 4 -49z m637 -127 c-45 -44 -85 -74 -94 -72 -9 2 -16 6 -15
11 1 4 2 34 2 67 0 66 13 76 57 45 19 -13 23 -13 45 5 12 11 37 19 53 19 29 0
28 -2 -48 -75z m-648 53 c-2 -2 -38 -33 -79 -68 -101 -87 -100 -87 -100 -46 0
33 3 36 83 75 70 35 111 51 96 39z m743 -59 c3 -29 2 -56 -1 -59 -3 -4 -37
-10 -76 -14 l-70 -6 65 63 c36 36 68 65 72 66 3 1 8 -22 10 -50z m-724 -14
l-3 -46 -79 -29 c-44 -16 -82 -26 -85 -24 -9 10 139 142 162 144 4 1 7 -20 5
-45z m-15 -81 c4 -3 -29 -30 -72 -59 -44 -29 -86 -63 -95 -76 -16 -22 -16 -21
-16 25 0 53 12 65 101 97 59 21 72 23 82 13z m707 -1 c0 -5 -8 -16 -17 -24
-23 -20 -133 -82 -137 -77 -2 2 -7 18 -10 36 -6 26 -4 34 14 43 40 21 150 37
150 22z m40 -52 c0 -37 -2 -40 -37 -49 -21 -5 -56 -12 -77 -15 -39 -5 -39 -5
-20 13 19 19 123 91 130 91 2 0 4 -18 4 -40z m-705 -71 c39 -124 39 -123 -57
-155 -46 -14 -89 -31 -96 -37 -7 -5 -15 -7 -18 -4 -4 3 15 25 41 49 102 93
115 106 115 117 0 18 -65 13 -120 -9 -27 -11 -50 -16 -50 -12 0 15 134 132
152 132 4 0 19 -36 33 -81z m684 -25 c-25 -27 -116 -84 -134 -84 -16 0 -35 79
-21 87 15 10 81 20 135 22 l44 1 -24 -26z m-729 -13 c0 -4 -18 -20 -40 -35
-23 -15 -58 -43 -79 -62 l-39 -34 -10 28 c-5 16 -7 34 -3 41 8 12 138 70 159
71 6 0 12 -4 12 -9z m782 -32 c3 -17 0 -32 -6 -34 -6 -2 -31 -10 -56 -16 l-45
-13 34 -5 c32 -6 33 -7 15 -23 -11 -9 -48 -31 -84 -49 -36 -17 -105 -62 -155
-99 -96 -71 -299 -187 -292 -167 9 28 158 141 237 180 68 34 91 51 116 87 19
29 41 48 62 55 18 5 32 15 32 22 0 13 107 92 126 92 7 1 14 -13 16 -30z m18
-113 c0 -37 -16 -47 -105 -62 -42 -7 -81 -23 -57 -24 7 0 45 5 83 11 39 6 73
9 75 6 7 -7 -66 -56 -161 -109 -77 -42 -81 -43 -107 -28 -16 8 -27 20 -25 25
11 32 257 215 289 215 5 0 8 -15 8 -34z m-710 4 c-34 -26 -100 -51 -94 -36 8
20 68 56 94 56 l25 0 -25 -20z m-120 -27 c-54 -45 -64 -52 -78 -53 -30 0 -3
34 47 61 64 34 77 31 31 -8z m139 0 c-8 -9 -52 -40 -98 -70 -76 -49 -85 -53
-100 -39 -20 21 -14 26 104 80 116 52 111 51 94 29z m64 -24 c5 -18 -6 -26
-81 -61 -48 -22 -95 -47 -104 -55 -32 -29 -19 2 15 34 30 29 144 103 158 103
4 0 9 -9 12 -21z m47 -47 c0 -13 -39 -46 -101 -85 -62 -39 -76 -54 -62 -68 5
-5 24 -1 46 11 20 11 43 20 49 20 7 0 47 20 88 44 41 24 79 42 83 39 5 -3 -2
-12 -15 -21 -13 -9 -61 -49 -107 -89 -46 -40 -90 -73 -98 -73 -41 0 -167 89
-150 107 4 3 58 32 119 64 107 55 148 69 148 51z m44 -31 c6 -9 -57 -50 -98
-65 -20 -7 -20 -7 0 15 19 22 73 59 86 59 4 0 9 -4 12 -9z m546 -19 c0 -26 -8
-32 -100 -76 -110 -53 -160 -58 -64 -7 34 18 79 50 100 72 45 46 64 50 64 11z
m-445 -113 c-37 -34 -45 -47 -40 -66 5 -23 5 -23 -90 -23 l-95 0 133 68 c72
38 133 67 135 66 2 -1 -17 -21 -43 -45z m116 38 c-1 -4 -1 -13 -1 -21 0 -19
-61 -56 -91 -56 -22 0 -20 5 24 46 42 40 70 53 68 31z m333 -18 c16 -83 9 -89
-114 -89 -76 0 -120 7 -120 19 1 7 199 99 216 100 6 1 14 -13 18 -30z"/>
<path d="M6223 5695 c-120 -27 -236 -89 -305 -161 -46 -49 -159 -235 -189
-312 -18 -46 -23 -78 -23 -162 -1 -102 0 -107 37 -180 41 -83 99 -164 137
-192 37 -27 313 -137 399 -159 113 -29 204 -25 296 11 244 97 334 183 365 349
32 172 -28 416 -145 593 -63 94 -115 130 -265 179 -142 46 -216 55 -307 34z
m-33 -74 c-10 -19 -45 -34 -110 -45 -32 -6 -34 -5 -18 10 14 14 108 53 131 54
4 0 3 -9 -3 -19z m249 8 c44 -16 39 -25 -19 -33 -59 -8 -70 -3 -63 24 6 23 33
26 82 9z m131 -38 c0 -5 -6 -12 -12 -14 -10 -4 -10 -8 1 -15 10 -7 2 -19 -39
-51 -58 -46 -65 -47 -117 -26 -52 22 -82 19 -149 -15 -81 -40 -142 -95 -164
-146 -11 -24 -29 -49 -42 -58 -32 -21 -108 -38 -149 -34 -31 3 -26 6 54 36 76
29 107 52 107 78 0 11 -121 -6 -172 -26 -26 -10 -48 -15 -48 -10 0 15 66 39
138 51 63 10 72 15 80 38 8 22 34 36 157 89 82 35 162 66 178 69 27 6 29 5 18
-16 -11 -20 -10 -21 29 -21 49 0 84 16 76 35 -3 8 5 21 17 30 24 17 37 19 37
6z m-264 -20 c-3 -5 -23 -12 -43 -16 -48 -9 -73 -22 -73 -39 0 -7 -43 -30 -95
-50 -60 -24 -102 -47 -111 -61 -9 -13 -30 -26 -50 -30 -20 -3 -43 -9 -51 -12
-13 -5 -15 -1 -9 23 16 63 79 129 144 149 38 11 24 -11 -18 -30 -55 -25 -63
-40 -16 -32 20 3 55 20 76 37 30 24 40 28 40 16 0 -9 5 -16 10 -16 6 0 10 4
10 8 0 4 17 13 38 19 20 6 55 18 77 27 45 17 79 21 71 7z m362 -20 c9 -5 -6
-16 -48 -34 -34 -15 -66 -27 -72 -27 -17 0 20 37 55 54 37 18 47 19 65 7z m56
-57 c10 -27 7 -33 -29 -48 -40 -17 -48 -31 -9 -16 35 14 41 13 47 -9 2 -11 15
-21 28 -23 13 -1 25 -11 27 -20 2 -13 -1 -16 -12 -12 -9 3 -22 2 -29 -3 -15
-13 -109 -44 -114 -39 -2 2 13 18 34 35 48 39 28 40 -35 1 l-47 -30 -23 28
c-13 15 -30 39 -38 55 l-15 28 53 24 c75 35 90 31 43 -10 -38 -33 -38 -35 -10
-23 17 7 48 27 70 45 46 37 51 39 59 17z m-369 -80 c12 -9 30 -12 48 -8 41 9
71 -17 106 -88 39 -84 54 -168 49 -278 -3 -72 -9 -96 -27 -122 -17 -25 -12
-22 18 11 25 26 45 60 51 85 21 88 22 89 85 113 33 13 63 22 68 20 5 -1 -19
-24 -52 -50 -38 -29 -61 -54 -61 -67 0 -18 2 -18 41 -5 23 8 51 15 63 15 16 0
11 -6 -21 -24 -23 -14 -58 -36 -77 -51 -19 -15 -41 -28 -49 -29 -8 -1 -32 -17
-53 -35 -62 -55 -118 -76 -205 -76 -67 0 -81 3 -125 30 -38 24 -56 45 -82 95
-32 62 -34 69 -28 145 11 177 35 234 125 302 47 36 93 43 126 17z m465 -99 c0
-21 -5 -25 -27 -25 -16 0 -57 -14 -91 -30 -35 -17 -69 -30 -74 -30 -23 0 30
44 92 76 80 41 100 43 100 9z m-865 -14 c-11 -10 -133 -61 -147 -61 -16 0 -7
20 14 31 45 24 151 48 133 30z m780 -67 c-37 -31 -105 -67 -112 -60 -14 13 11
38 59 60 70 32 91 32 53 0z m103 0 c-3 -24 -13 -30 -95 -59 -51 -17 -93 -29
-93 -26 0 7 171 110 183 111 5 0 7 -12 5 -26z m-823 -23 c-6 -5 -63 -27 -127
-50 l-118 -41 0 24 c0 30 31 57 78 66 55 11 178 12 167 1z m15 -45 c-16 -16
-101 -35 -87 -20 10 11 66 32 87 33 13 1 13 -1 0 -13z m830 1 c0 -28 -74 -81
-147 -107 -27 -10 -27 -9 7 21 47 42 123 98 133 99 4 0 7 -6 7 -13z m-878 -63
c-12 -8 -57 -28 -101 -44 -43 -15 -88 -33 -100 -39 -19 -11 -21 -9 -21 13 0
15 9 31 23 40 31 21 124 45 177 45 43 1 44 0 22 -15z m48 -34 c-18 -33 -53
-50 -141 -65 -100 -18 -96 -18 -82 -4 9 9 206 86 226 88 4 1 3 -8 -3 -19z
m860 -10 c0 -11 -6 -22 -12 -24 -7 -1 -34 -10 -60 -18 -27 -9 -48 -12 -48 -7
0 4 8 10 18 13 11 4 29 18 42 31 29 31 60 33 60 5z m0 -69 c0 -28 -6 -32 -122
-81 -149 -63 -211 -78 -128 -31 30 17 84 47 120 66 36 18 79 43 95 54 17 12
31 21 33 21 1 0 2 -13 2 -29z m-975 -22 c-84 -40 -135 -50 -135 -25 0 14 38
29 140 55 74 19 72 8 -5 -30z m130 1 c0 -19 -78 -41 -135 -38 l-45 3 75 27
c81 29 105 31 105 8z m-20 -48 c-9 -7 -109 -47 -167 -65 -23 -8 -47 21 -27 34
8 5 19 9 24 9 6 1 37 7 70 15 70 16 113 19 100 7z m635 0 c0 -9 -123 -82 -129
-76 -9 8 36 48 74 65 44 21 55 23 55 11z m-573 -39 c4 -11 -49 -26 -136 -39
-34 -5 -42 -3 -39 7 3 8 27 17 55 21 27 4 60 12 74 17 28 11 41 9 46 -6z m713
10 c-1 -10 -278 -191 -329 -215 -36 -17 -36 -17 -8 -18 40 0 28 -12 -48 -49
-65 -31 -147 -42 -160 -22 -3 5 18 18 47 29 29 11 60 22 68 25 9 3 6 6 -10 7
-20 0 -16 4 23 22 46 20 61 38 33 38 -8 0 -52 -9 -97 -20 -46 -11 -85 -18 -87
-15 -2 2 16 14 42 27 25 12 46 26 46 30 0 16 -41 8 -62 -12 -12 -11 -52 -32
-90 -46 -61 -25 -72 -26 -108 -15 -44 13 -45 31 -2 31 33 0 147 24 186 39 23
9 26 14 16 26 -10 12 -9 15 6 14 11 0 34 -6 53 -13 29 -10 39 -10 70 6 27 14
48 17 81 13 41 -6 55 -1 145 46 125 66 185 89 185 72z m80 -16 c0 -42 -104
-127 -127 -104 -3 4 -26 -4 -52 -17 -60 -31 -96 -42 -87 -27 9 14 244 171 256
171 6 0 10 -10 10 -23z m-810 -43 c0 -9 -125 -63 -154 -66 -20 -2 -32 3 -43
19 -14 21 -13 22 34 28 26 4 62 11 78 15 36 10 85 12 85 4z m88 -23 c10 -6 8
-10 -10 -14 -34 -10 -68 -8 -68 2 0 8 20 15 55 19 6 1 16 -2 23 -7z m52 -56
c-7 -8 -27 -15 -44 -14 l-31 1 40 18 c43 20 55 19 35 -5z m625 -3 c-11 -36
-80 -88 -161 -122 -78 -33 -209 -70 -245 -70 -38 0 -17 22 49 52 37 17 78 39
92 49 14 9 62 29 106 44 44 14 98 37 120 49 44 26 48 25 39 -2z m-708 10 c-3
-4 -34 -22 -69 -41 -59 -32 -66 -33 -93 -20 -50 24 -40 35 47 51 100 18 121
20 115 10z m100 -123 c-21 -11 -48 -19 -60 -17 -16 3 -9 8 28 20 67 22 78 21
32 -3z"/>
<path d="M6408 4653 c7 -3 16 -2 19 1 4 3 -2 6 -13 5 -11 0 -14 -3 -6 -6z"/>
<path d="M8942 4878 c-1 -24 -3 -98 -5 -166 -2 -100 1 -124 13 -132 8 -6 22
-7 30 -4 8 4 49 8 90 10 137 6 216 25 224 52 2 9 6 71 8 137 l3 120 -65 8
c-36 4 -117 10 -180 13 l-115 6 -3 -44z m208 -13 c-13 -16 -160 -88 -166 -82
-5 5 -7 38 -6 70 l2 27 91 0 c81 0 90 -2 79 -15z m108 -8 c8 -6 9 -14 3 -20
-13 -13 -211 -66 -211 -57 0 4 34 24 75 43 41 20 75 41 75 47 0 13 37 4 58
-13z m-38 -82 c-7 -8 -27 -17 -45 -21 -18 -3 -67 -25 -109 -49 -42 -24 -76
-41 -76 -37 0 4 -3 17 -6 29 -5 20 0 26 42 44 61 26 140 47 178 48 24 1 27 -1
16 -14z m-5 -85 c-31 -32 -84 -50 -149 -50 -66 0 -53 14 68 70 94 44 101 46
104 28 2 -12 -8 -32 -23 -48z"/>
<path d="M9521 4868 c-3 -29 -5 -104 -5 -166 -1 -90 2 -115 14 -122 8 -6 22
-7 30 -4 8 4 47 8 85 9 117 6 198 22 216 44 19 23 33 238 18 258 -11 13 -73
20 -239 29 l-115 6 -4 -54z m214 2 c-10 -17 -165 -91 -175 -85 -11 7 -13 55
-4 79 5 13 23 16 96 16 58 0 87 -4 83 -10z m79 0 c14 -5 26 -16 26 -24 0 -15
-24 -25 -127 -51 -34 -8 -70 -18 -80 -21 -33 -10 17 25 82 58 33 17 62 34 63
39 4 11 5 11 36 -1z m-9 -89 c-3 -5 -27 -17 -53 -25 -26 -9 -78 -34 -115 -55
l-67 -40 -6 26 c-9 34 9 47 106 78 76 24 146 33 135 16z m1 -76 c-24 -36 -69
-55 -146 -64 -60 -6 -68 -5 -57 8 7 8 57 36 112 62 79 39 101 45 103 33 2 -8
-4 -26 -12 -39z"/>
<path d="M10103 4907 c3 -8 0 -47 -6 -85 -15 -88 -7 -230 14 -243 8 -5 21 -6
29 -3 8 4 48 8 89 10 122 7 194 21 212 43 19 23 33 238 17 258 -10 13 -77 21
-247 29 -98 5 -113 4 -108 -9z m207 -37 c0 -9 -154 -90 -172 -90 -5 0 -8 23
-8 50 l0 50 90 0 c55 0 90 -4 90 -10z m85 -2 c48 -22 28 -39 -80 -66 -44 -11
-89 -24 -99 -28 -14 -5 -17 -4 -12 5 4 6 38 27 76 46 38 19 71 39 75 45 8 13
9 13 40 -2z m-15 -87 c0 -5 -17 -15 -37 -21 -21 -7 -71 -30 -111 -51 -41 -21
-78 -39 -83 -39 -5 0 -9 11 -9 25 0 29 18 40 115 71 74 24 125 30 125 15z m6
-76 c-9 -14 -30 -32 -47 -40 -33 -18 -169 -36 -169 -23 0 4 51 33 113 63 90
44 113 52 115 40 2 -9 -4 -27 -12 -40z"/>
<path d="M11855 4004 c-49 -8 -96 -16 -102 -19 -20 -7 -16 -219 8 -476 11
-123 24 -319 27 -436 4 -118 11 -216 17 -222 6 -5 62 -11 125 -12 l115 -1 1
323 c0 305 2 330 24 429 30 132 34 332 8 393 -17 37 -17 37 -75 36 -32 -1 -98
-8 -148 -15z m166 -46 c12 -10 15 -26 11 -60 -4 -48 -4 -48 -41 -48 -61 0 -70
15 -23 39 23 12 42 26 42 31 0 16 -83 32 -142 27 -32 -3 -58 -1 -58 3 0 21
188 27 211 8z m-87 -36 c9 -14 -49 -63 -85 -72 -19 -5 -44 -12 -56 -15 -19 -6
-23 -4 -23 14 0 32 18 61 43 71 28 11 114 12 121 2z m33 -93 l28 -11 -27 -21
c-15 -12 -53 -35 -85 -50 -32 -16 -66 -33 -76 -39 -24 -12 -32 -4 -21 19 4 10
8 26 8 35 1 11 23 29 56 47 62 33 77 35 117 20z m73 -50 c0 -26 -4 -38 -11
-34 -16 10 -99 -24 -99 -41 0 -18 12 -18 57 1 43 18 57 9 47 -29 -5 -20 -10
-24 -17 -17 -6 6 -32 11 -58 11 -39 0 -49 4 -54 20 -5 16 -12 19 -27 14 -41
-13 -7 16 62 52 39 20 70 43 70 50 0 8 7 14 15 14 11 0 15 -11 15 -41z m-199
-95 c10 -13 10 -17 -2 -25 -32 -20 -61 0 -39 26 16 19 24 19 41 -1z m98 -43
c20 -13 6 -28 -34 -35 -20 -4 -41 -16 -48 -26 -17 -28 -35 -25 -43 6 -8 32 1
41 51 53 53 12 58 12 74 2z m81 -31 c0 -19 -10 -23 -97 -43 -31 -7 -29 -3 19
32 49 36 78 40 78 11z m0 -54 c0 -53 -39 -90 -105 -101 l-40 -6 65 60 c68 63
80 70 80 47z m-80 -16 c0 -10 -99 -90 -111 -90 -14 0 -11 68 3 77 19 12 92 31
101 26 4 -2 7 -8 7 -13z m19 -107 c-18 -21 -99 -73 -115 -73 -14 0 -24 33 -14
50 7 11 89 37 124 39 16 1 17 -1 5 -16z m41 -33 c0 -23 -46 -50 -87 -50 -33 0
-24 11 38 44 24 13 45 24 47 25 1 0 2 -8 2 -19z m-50 -67 c0 -3 -7 -15 -17
-25 -9 -10 -14 -21 -10 -24 3 -3 13 6 22 20 26 39 45 33 45 -14 0 -39 -1 -40
-42 -47 -49 -7 -53 -7 -54 7 -1 6 -2 13 -3 18 -1 4 -10 -4 -21 -18 -22 -29
-26 -27 -35 21 -7 36 -6 37 37 52 47 17 78 21 78 10z m10 -121 c0 -8 -38 -45
-87 -86 l-23 -19 0 51 c0 50 1 51 33 55 60 7 77 7 77 -1z m7 -78 c-28 -26 -32
-34 -19 -36 12 -2 2 -13 -31 -36 -26 -17 -50 -32 -53 -32 -2 0 -4 14 -4 30 0
27 3 30 33 31 27 1 29 2 9 7 -20 6 -21 9 -10 23 7 9 33 31 58 49 39 28 45 29
49 14 2 -11 -11 -31 -32 -50z m33 -79 c0 -8 -10 -20 -22 -26 -29 -16 -128 -38
-128 -29 0 9 119 70 136 70 8 0 14 -7 14 -15z m-76 -86 c-29 -32 -54 -43 -68
-29 -15 16 27 50 62 50 25 0 25 0 6 -21z m72 -14 c-4 -14 -2 -25 4 -25 16 0
12 -18 -10 -40 -12 -12 -33 -20 -52 -20 -39 0 -78 10 -78 19 0 4 25 19 56 34
39 19 54 32 50 42 -4 10 1 15 15 15 18 0 20 -4 15 -25z"/>
<path d="M1948 3976 c-32 -7 -60 -14 -62 -17 -3 -2 0 -70 6 -149 5 -80 8 -194
5 -255 -6 -146 9 -738 24 -941 l12 -161 87 -12 c77 -11 95 -10 145 4 48 14 77
16 174 9 146 -11 462 -5 479 8 19 16 17 304 -2 311 -9 4 -17 -2 -21 -13 -10
-31 -65 -39 -300 -46 -206 -6 -221 -6 -243 12 -21 17 -25 36 -43 194 -11 96
-27 204 -34 240 -19 85 -21 410 -5 595 7 77 13 160 14 185 l1 45 -90 2 c-49 1
-116 -4 -147 -11z m163 -39 c-1 -4 -3 -7 -6 -7 -3 -1 -23 -7 -45 -15 -22 -8
-40 -10 -40 -5 0 17 -17 11 -49 -16 -29 -24 -31 -25 -31 -6 0 41 11 52 52 52
23 0 37 -4 33 -10 -8 -13 -3 -13 36 5 35 14 51 15 50 2z m18 -79 c0 -35 -4
-108 -11 -163 -6 -55 -11 -134 -12 -175 l-1 -75 -45 -12 -45 -11 43 -1 c42 -1
42 -1 42 -39 0 -26 -6 -41 -20 -50 -27 -16 -27 -37 -1 -22 38 20 30 9 -31 -43
-35 -29 -65 -62 -67 -72 -3 -16 2 -17 35 -11 22 3 50 9 64 12 22 6 19 2 -15
-27 -22 -19 -42 -33 -46 -32 -4 1 -15 -7 -24 -17 -10 -11 -22 -20 -27 -20 -4
0 -8 38 -8 85 0 47 3 85 8 85 4 0 21 11 37 25 l30 25 -27 -6 c-42 -9 -34 10
17 47 25 18 43 34 41 37 -3 2 -30 -9 -60 -26 -54 -29 -74 -28 -62 4 3 8 20 21
38 29 30 13 31 14 9 15 l-24 0 24 26 c13 14 38 34 56 45 51 32 43 49 -22 49
-30 0 -55 4 -55 9 0 5 26 29 58 53 67 52 73 71 20 74 -21 1 -38 -2 -38 -7 0
-5 12 -9 28 -9 l27 -1 -37 -34 c-44 -41 -78 -46 -78 -13 0 12 7 30 17 40 11
12 12 18 4 18 -26 0 -3 23 54 53 49 26 60 37 60 57 0 27 -15 30 -85 15 -33 -7
-31 -4 27 36 35 24 63 48 63 53 0 7 28 34 37 36 1 0 2 -28 2 -62z m-89 13
c-10 -20 -70 -61 -89 -61 -6 0 -11 7 -11 15 0 8 5 15 11 15 5 0 27 11 47 25
44 30 56 32 42 6z m15 -111 c-16 -16 -36 -30 -46 -30 -9 0 -22 -7 -29 -15 -7
-8 -16 -15 -21 -15 -11 0 -12 60 -1 60 4 1 30 7 57 15 70 19 72 19 40 -15z
m-50 -277 c-52 -50 -70 -48 -55 7 6 25 32 37 80 39 22 1 20 -3 -25 -46z m108
-234 c6 -24 3 -27 -33 -37 -21 -5 -42 -7 -45 -4 -8 8 36 52 52 52 7 0 13 5 13
12 0 17 6 6 13 -23z m7 -122 c0 -7 -5 -18 -12 -25 -9 -9 -9 -12 0 -12 7 0 12
-4 12 -9 0 -9 -135 -144 -149 -149 -11 -4 -19 42 -14 72 3 16 14 27 32 31 33
8 71 32 71 45 0 6 -16 4 -37 -5 -41 -17 -52 -13 -32 11 36 44 129 73 129 41z
m20 -121 c0 -17 -13 -28 -55 -49 -82 -40 -87 -33 -20 27 33 30 63 52 68 49 4
-2 7 -14 7 -27z m-47 -95 c-24 -21 -43 -41 -43 -45 0 -3 21 7 48 24 l47 29 3
-25 c2 -14 -2 -32 -8 -39 -10 -12 -9 -16 4 -21 14 -5 14 -9 4 -22 -11 -13 -10
-15 5 -9 14 5 17 1 17 -29 0 -22 -4 -33 -10 -29 -6 4 -16 3 -23 -3 -7 -5 -32
-16 -56 -26 l-43 -17 7 28 7 28 -22 -28 c-12 -15 -28 -27 -36 -27 -19 0 -19
64 1 80 21 18 19 40 -5 40 -17 0 -20 7 -20 40 0 28 4 40 14 40 8 0 36 11 62
25 26 14 56 25 68 25 18 -1 14 -7 -21 -39z m47 -200 c0 -5 -14 -20 -31 -33
-17 -13 -49 -40 -71 -60 -47 -44 -54 -46 -61 -16 -9 33 8 54 65 81 84 39 98
43 98 28z m53 -40 c-10 -16 -9 -18 8 -14 32 9 22 -4 -52 -63 -39 -31 -68 -59
-65 -62 4 -3 -4 -16 -16 -29 -22 -24 -72 -31 -83 -12 -10 15 3 59 17 59 16 0
118 62 118 72 0 4 -8 4 -17 1 -16 -6 -17 -5 -4 13 8 10 28 34 45 52 27 29 32
31 45 17 12 -12 13 -19 4 -34z m277 9 c30 0 48 -26 30 -44 -5 -5 -10 -14 -10
-19 0 -5 18 7 40 27 22 20 48 36 58 37 9 0 31 2 49 3 31 3 32 3 20 -19 -7 -13
-44 -56 -83 -97 -68 -72 -71 -74 -112 -70 -51 5 -50 18 1 45 20 10 37 24 37
29 0 6 -6 5 -15 -2 -9 -7 -29 -13 -45 -12 -32 1 -55 -20 -46 -43 4 -12 -6 -15
-59 -15 -36 0 -65 3 -65 7 0 3 28 36 63 72 47 49 58 66 45 69 -9 2 -29 -4 -45
-13 l-28 -16 30 6 c28 6 28 5 -15 -33 -67 -60 -140 -101 -193 -108 -53 -7 -63
6 -20 25 20 9 23 15 14 20 -9 6 8 25 60 63 41 30 80 61 86 70 9 10 34 15 75
17 34 1 65 4 67 7 3 3 11 2 19 -1 7 -3 26 -5 42 -5z m306 -18 c-9 -17 -45 -44
-101 -75 -48 -27 -88 -47 -91 -45 -2 2 21 29 51 58 30 30 55 60 55 66 0 16 17
22 63 23 l38 1 -15 -28z m4 -101 c0 -33 -3 -62 -7 -64 -12 -6 -193 5 -193 12
1 8 172 110 188 110 8 1 12 -17 12 -58z"/>
<path d="M2055 2820 c-3 -6 1 -7 9 -4 18 7 21 14 7 14 -6 0 -13 -4 -16 -10z"/>
<path d="M2445 2591 c-10 -17 12 -21 25 -6 10 12 10 15 -3 15 -9 0 -18 -4 -22
-9z"/>
<path d="M7223 3947 c-70 -7 -103 -14 -103 -23 0 -7 16 -32 36 -56 20 -23 44
-59 53 -78 8 -19 35 -57 58 -83 48 -55 267 -381 339 -506 45 -78 49 -90 47
-145 -11 -368 -13 -512 -6 -571 8 -66 9 -70 38 -77 50 -12 295 -32 302 -24 12
12 15 287 5 471 l-10 180 61 114 c40 73 80 133 112 165 63 63 103 117 117 156
5 17 14 30 18 30 15 0 68 95 126 225 32 72 69 141 83 154 43 44 23 51 -139 55
-80 1 -151 1 -157 -2 -16 -5 -17 -34 -1 -50 9 -9 7 -17 -10 -35 -12 -13 -22
-31 -22 -40 0 -9 -5 -19 -10 -22 -6 -4 -20 -25 -32 -48 -11 -23 -36 -60 -54
-81 -19 -22 -34 -45 -34 -52 0 -7 -3 -14 -7 -16 -5 -1 -21 -22 -36 -46 -15
-23 -38 -47 -51 -52 -14 -5 -29 -25 -40 -53 -9 -25 -23 -48 -31 -50 -15 -6
-99 78 -162 163 -65 87 -213 337 -213 359 0 11 -8 25 -18 30 -29 15 -150 19
-259 8z m135 -64 c-12 -15 -90 -53 -107 -53 -4 0 -14 12 -22 28 -7 15 -15 30
-17 34 -4 9 61 14 116 9 37 -3 41 -5 30 -18z m102 -14 c0 -5 -4 -9 -10 -9 -5
0 -10 7 -10 16 0 8 5 12 10 9 6 -3 10 -10 10 -16z m816 6 c-21 -16 -32 -13
-21 4 3 6 14 11 23 11 15 -1 15 -2 -2 -15z m162 -7 c-3 -7 -26 -12 -55 -12
-40 -1 -49 2 -41 11 14 17 101 18 96 1z m-998 -36 c0 -8 -108 -82 -119 -82 -3
0 -13 5 -21 10 -13 8 -13 11 -1 19 11 7 10 10 -5 13 -13 3 -4 9 28 20 26 9 56
14 67 11 12 -3 21 -1 21 6 0 6 7 11 15 11 8 0 15 -4 15 -8z m941 -84 c-17 -40
-40 -88 -51 -105 -20 -33 -20 -33 -100 -33 -87 0 -97 11 -26 29 47 12 71 31
38 31 -11 0 -36 -7 -55 -15 -20 -8 -47 -15 -59 -15 l-23 0 26 26 c18 18 41 27
80 32 62 9 92 5 83 -10 -4 -6 3 -8 17 -6 14 2 25 11 27 22 4 18 -1 19 -55 13
-32 -3 -70 -3 -83 0 -21 6 -7 15 90 62 63 31 116 53 118 49 2 -4 -11 -40 -27
-80z m-106 61 c0 -14 -82 -65 -91 -56 -10 10 16 47 44 61 31 17 47 16 47 -5z
m-775 -18 c16 -31 13 -37 -42 -78 -77 -56 -79 -57 -89 -42 -17 27 -8 39 38 52
26 8 49 19 51 26 3 9 -2 11 -17 7 -11 -3 -30 -9 -41 -12 -35 -10 -22 14 23 40
51 31 63 32 77 7z m11 -95 c-9 -11 -6 -12 14 -8 14 2 25 0 25 -6 0 -11 -18
-15 -105 -26 l-40 -5 55 29 c64 34 66 34 51 16z m59 -46 c0 -6 -28 -30 -62
-55 l-61 -46 -24 22 c-52 50 -15 75 130 88 9 0 17 -4 17 -9z m43 -64 c-1 -17
3 -26 13 -26 8 0 14 -4 14 -10 0 -11 -40 -50 -51 -50 -4 0 -21 -11 -38 -25
l-30 -26 -25 34 c-45 58 -29 88 62 122 47 17 57 14 55 -19z m607 5 c18 -2 7
-9 -40 -25 -79 -28 -140 -40 -140 -28 0 27 82 62 135 57 11 -2 31 -3 45 -4z
m60 -23 c-1 -7 -11 -25 -23 -40 -20 -25 -30 -28 -107 -33 l-85 -5 75 36 c69
33 113 51 133 53 4 1 7 -5 7 -11z m-591 -65 c10 -21 10 -28 1 -31 -9 -3 -9 -6
1 -12 18 -12 0 -31 -61 -69 -47 -29 -50 -29 -69 -13 -35 29 -29 43 24 63 l50
19 -45 -6 c-54 -7 -47 4 27 47 61 34 58 34 72 2z m425 -47 c-40 -30 -1 -25 80
9 16 7 15 1 -10 -46 -25 -46 -38 -58 -94 -86 -36 -17 -96 -42 -134 -53 -43
-14 -64 -25 -57 -30 9 -5 5 -13 -15 -29 -43 -34 -2 -26 64 12 104 59 129 66
97 24 -7 -11 -12 -24 -9 -31 6 -17 -55 -74 -64 -59 -5 8 -17 5 -42 -8 l-35
-20 43 7 c35 5 42 3 42 -11 0 -17 -18 -56 -30 -65 -4 -3 -11 -18 -17 -35 -5
-16 -16 -30 -24 -30 -8 0 -26 -10 -39 -23 -14 -13 -56 -39 -93 -57 -78 -39
-94 -30 -58 30 25 42 26 55 7 55 -8 0 -17 14 -21 30 -4 17 -13 30 -21 30 -8 0
-14 5 -14 10 0 6 24 10 53 10 31 0 61 6 73 15 17 13 14 14 -42 15 -103 0 -103
27 -2 84 40 23 22 34 -21 12 -36 -19 -45 -20 -35 -5 3 6 26 20 50 31 24 10 44
23 44 28 0 14 -5 13 -61 -15 -47 -24 -69 -26 -69 -5 0 6 16 16 36 25 19 8 33
19 29 24 -6 11 22 29 66 41 30 9 33 5 30 -32 -3 -29 32 -21 60 13 24 29 31 32
119 41 104 10 137 21 50 17 -42 -2 -55 0 -55 11 0 7 15 18 32 22 18 5 40 20
49 33 9 14 26 25 37 25 20 0 20 0 1 -14z m-59 -5 c5 -8 -52 -31 -78 -31 -14 0
4 21 27 30 28 12 44 12 51 1z m-299 -36 c19 -29 19 -28 -21 -43 -29 -11 -29
-11 8 -6 20 4 37 4 37 1 0 -3 -20 -17 -45 -31 -25 -15 -45 -30 -45 -34 0 -4
-17 -7 -38 -7 -20 0 -36 4 -34 8 1 4 2 11 2 15 0 5 10 14 23 20 20 11 19 11
-10 6 -21 -3 -33 -1 -33 5 0 6 6 11 14 11 7 0 36 18 62 40 27 21 52 39 56 40
4 0 15 -11 24 -25z m176 -464 c3 -23 -3 -37 -29 -65 -18 -19 -33 -37 -33 -40
0 -4 16 0 36 9 l35 15 -3 -27 c-2 -22 -11 -30 -43 -39 -35 -10 -37 -12 -15
-16 23 -4 21 -6 -28 -37 -68 -44 -60 -53 11 -12 67 38 77 39 77 2 0 -38 -40
-85 -89 -104 -21 -9 -55 -27 -76 -41 -51 -35 -67 -34 -63 5 3 27 10 34 46 48
51 20 45 31 -15 31 -45 0 -49 4 -34 44 8 19 21 27 66 37 63 14 90 36 31 25
-50 -9 -45 1 12 26 26 12 41 23 33 26 -17 6 -112 -38 -105 -49 2 -4 -5 -13
-16 -19 -17 -9 -20 -8 -20 9 0 30 50 81 90 91 l35 9 -35 -3 c-19 -2 -44 -7
-55 -11 -19 -7 -19 -7 -3 11 15 15 160 99 179 103 4 0 9 -12 11 -28z m2 -313
c3 -13 6 -26 6 -30 0 -8 -204 -118 -220 -118 -6 0 -10 8 -8 17 2 11 25 23 68
36 75 22 101 39 45 30 -55 -9 -42 13 31 54 32 18 62 33 65 33 4 0 9 -10 13
-22z m9 -78 c-3 -11 -19 -33 -36 -50 l-31 -30 27 0 c30 0 45 -23 29 -43 -8
-10 -31 -11 -101 -3 -96 9 -108 20 -38 32 38 6 40 8 20 17 -13 5 -23 13 -23
16 0 6 138 79 152 80 3 1 4 -8 1 -19z"/>
<path d="M7563 3560 c-31 -13 -29 -20 7 -20 20 0 30 5 30 15 0 17 -5 18 -37 5z"/>
<path d="M7843 3049 c-18 -5 -35 -13 -38 -18 -6 -11 66 7 80 20 11 11 1 11
-42 -2z"/>
<path d="M7771 2981 c-23 -15 3 -20 34 -6 29 13 29 13 5 14 -14 0 -31 -3 -39
-8z"/>
<path d="M731 3939 c-30 -5 -56 -11 -59 -13 -2 -2 4 -16 13 -30 11 -17 15 -36
12 -54 -13 -59 -9 -476 4 -532 10 -39 14 -142 14 -360 1 -168 2 -365 3 -437
l2 -133 108 1 c59 0 125 3 147 7 l40 7 -3 210 c-3 176 8 474 32 866 5 80 -17
329 -33 372 -5 13 -8 33 -5 43 2 11 0 25 -4 32 -20 30 -155 40 -271 21z m69
-48 c0 -5 -13 -19 -30 -31 -31 -22 -38 -14 -20 21 11 19 50 27 50 10z m71 -6
c0 -14 -67 -47 -88 -43 -13 2 -5 11 27 30 45 27 62 31 61 13z m103 -36 c11
-56 7 -69 -31 -106 -30 -28 -32 -31 -10 -18 33 21 51 10 45 -26 -2 -19 -19
-29 -88 -56 -49 -19 -86 -29 -88 -23 -5 15 -23 12 -44 -7 -17 -15 -18 -13 -19
58 -2 123 3 149 30 142 11 -3 46 6 78 20 102 43 108 46 114 46 4 1 9 -13 13
-30z m24 -268 c-2 -19 -18 -34 -64 -61 -87 -49 -144 -98 -144 -120 0 -21 30
-27 64 -14 25 10 20 33 -6 26 l-23 -5 20 23 c27 30 66 57 109 75 l36 15 0 -33
c0 -31 -4 -35 -47 -50 -27 -9 -37 -15 -24 -13 21 4 20 1 -13 -28 -51 -47 -45
-51 17 -9 l52 35 3 -48 c4 -55 -8 -69 -105 -124 -54 -31 -83 -63 -83 -92 0
-25 15 -23 88 12 35 17 66 30 68 30 16 0 -5 -24 -61 -70 -36 -29 -63 -55 -60
-58 3 -3 15 4 28 15 12 11 46 36 74 57 l53 37 -16 -38 c-9 -21 -30 -53 -47
-70 l-31 -33 35 10 34 9 -40 -34 c-43 -37 -32 -48 15 -15 31 22 40 18 40 -17
0 -20 -14 -30 -82 -63 -81 -39 -118 -49 -118 -31 0 6 9 16 20 24 20 14 20 15
2 19 -10 3 -22 15 -25 27 -4 17 2 25 31 38 28 12 33 17 19 20 -12 3 -16 10
-12 21 5 14 4 15 -6 5 -29 -29 -37 -6 -40 111 -3 92 -11 82 111 128 93 35 98
50 7 20 -60 -20 -66 -18 -42 14 29 39 14 36 -23 -4 -22 -23 -44 -42 -50 -42
-22 0 -34 120 -24 229 l7 74 45 13 c25 8 59 14 75 14 l30 0 -25 -21 c-25 -20
-24 -20 18 1 23 11 42 27 42 36 0 8 4 12 10 9 5 -3 18 -2 27 4 14 8 20 5 26
-12 4 -12 7 -32 5 -46z m-18 -320 c0 -25 -6 -31 -56 -50 -62 -23 -78 -26 -69
-11 10 16 105 90 116 90 5 0 9 -13 9 -29z m-70 -350 c0 -5 -7 -11 -15 -15 -15
-5 -20 5 -8 17 9 10 23 9 23 -2z m50 -26 c0 -15 -6 -25 -14 -25 -8 0 -36 -9
-62 -20 -69 -30 -73 -20 -13 28 63 49 89 54 89 17z m-132 -30 c-53 -51 -68
-55 -68 -21 0 18 10 28 48 44 69 31 72 27 20 -23z m57 -55 c-16 -16 -24 -30
-17 -30 6 0 27 14 45 30 38 33 57 38 57 15 0 -26 -45 -63 -84 -70 -20 -4 -36
-12 -36 -17 0 -6 7 -7 16 -4 9 3 28 9 42 13 l27 6 -20 -24 c-11 -13 -13 -18
-5 -11 25 21 50 15 50 -13 0 -18 -8 -29 -27 -37 -16 -7 -30 -13 -32 -15 -6 -4
22 -29 40 -35 18 -7 30 -50 19 -69 -4 -6 -26 -13 -47 -15 -69 -6 -116 -19
-121 -33 -5 -14 24 -11 88 8 57 18 68 13 35 -15 -30 -26 -21 -29 28 -9 13 6
17 2 17 -17 0 -24 -3 -25 -86 -32 -47 -3 -90 -4 -95 -1 -5 4 -9 37 -9 75 0 67
1 70 29 85 31 16 53 39 27 29 -21 -8 -66 25 -66 48 0 13 11 24 30 31 17 6 30
14 30 18 0 12 -29 19 -35 9 -12 -20 -25 -9 -25 20 0 20 7 33 21 41 18 9 115
46 128 48 3 1 -8 -12 -24 -29z"/>
<path d="M796 3769 c-58 -46 -16 -65 64 -28 25 12 54 22 64 23 11 0 21 6 23
13 5 13 -26 6 -89 -21 -21 -9 -45 -16 -54 -16 -15 0 -14 4 6 25 29 30 22 32
-14 4z"/>
<path d="M841 3669 c-13 -11 -22 -22 -19 -24 2 -3 15 6 28 20 28 30 24 32 -9
4z"/>
<path d="M801 3541 c-12 -12 -21 -25 -21 -31 0 -14 67 -13 76 1 4 8 -4 9 -27
4 l-34 -7 19 21 c25 28 14 39 -13 12z"/>
<path d="M10583 3578 c-7 -11 -7 -238 1 -528 2 -52 11 -124 21 -160 24 -89 23
-164 -2 -198 -16 -22 -32 -29 -79 -35 -121 -17 -156 -5 -234 79 -63 68 -88
134 -106 271 -19 156 -19 278 0 387 32 179 35 176 -175 176 l-159 0 -7 -27
c-12 -42 -8 -495 5 -603 26 -217 100 -399 199 -491 92 -85 151 -109 286 -116
105 -5 116 -4 174 21 l62 26 83 -16 c54 -10 121 -14 196 -12 139 4 141 5 130
110 -4 40 -10 114 -13 163 -4 50 -17 155 -31 235 -27 162 -36 421 -20 591 l9
96 -64 12 c-83 14 -214 31 -244 31 -13 0 -27 -6 -32 -12z m137 -67 c-13 -26
-85 -43 -85 -21 0 14 44 38 73 39 19 1 21 -2 12 -18z m-690 5 c0 -7 -100 -76
-110 -76 -6 0 -10 18 -10 40 l0 40 60 0 c33 0 60 -2 60 -4z m105 -58 c-11
-104 -21 -126 -63 -137 -122 -32 -156 -40 -159 -37 -2 2 14 14 34 28 21 14 70
55 108 90 68 64 69 66 53 85 -24 26 -23 33 7 33 26 0 26 -1 20 -62z m725 53
c19 -6 -53 -30 -89 -31 -41 0 -43 1 -28 18 11 12 29 17 64 16 26 -1 50 -2 53
-3z m-35 -60 c-6 -5 -49 -34 -97 -65 l-88 -56 0 44 c0 38 3 45 28 55 60 24
177 41 157 22z m-771 -22 c-9 -15 -124 -99 -136 -99 -5 0 -8 15 -6 32 3 30 9
35 58 55 60 24 95 29 84 12z m803 -40 c-3 -22 -7 -42 -9 -43 -1 -2 -27 0 -57
3 l-54 6 53 38 c30 20 58 37 63 37 5 0 7 -18 4 -41z m-67 -78 c0 -9 -54 -54
-101 -83 -34 -21 -49 -8 -49 43 l0 38 53 4 c28 2 62 4 75 5 12 1 22 -2 22 -7z
m48 -86 c-2 -1 -30 -5 -63 -8 l-60 -6 45 39 c25 22 52 46 60 55 13 14 15 11
18 -31 2 -25 2 -47 0 -49z m-808 56 c-14 -26 -90 -91 -107 -91 -10 0 -13 11
-11 38 3 36 4 37 63 54 33 9 61 17 63 17 1 1 -2 -8 -8 -18z m80 -30 c0 -48 -1
-50 -37 -61 -21 -7 -59 -24 -86 -38 -26 -14 -50 -22 -54 -18 -11 10 151 166
173 166 2 0 4 -22 4 -49z m637 -127 c-45 -44 -85 -74 -94 -72 -9 2 -16 6 -15
11 1 4 2 34 2 67 0 66 13 76 57 45 19 -13 23 -13 45 5 12 11 37 19 53 19 29 0
28 -2 -48 -75z m-648 53 c-2 -2 -38 -33 -79 -68 -101 -87 -100 -87 -100 -46 0
33 3 36 83 75 70 35 111 51 96 39z m743 -59 c3 -29 2 -56 -1 -59 -3 -4 -37
-10 -76 -14 l-70 -6 65 63 c36 36 68 65 72 66 3 1 8 -22 10 -50z m-724 -14
l-3 -46 -79 -29 c-44 -16 -82 -26 -85 -24 -9 10 139 142 162 144 4 1 7 -20 5
-45z m-15 -81 c4 -3 -29 -30 -72 -59 -44 -29 -86 -63 -95 -76 -16 -22 -16 -21
-16 25 0 53 12 65 101 97 59 21 72 23 82 13z m707 -1 c0 -5 -8 -16 -17 -24
-23 -20 -133 -82 -137 -77 -2 2 -7 18 -10 36 -6 26 -4 34 14 43 40 21 150 37
150 22z m40 -52 c0 -37 -2 -40 -37 -49 -21 -5 -56 -12 -77 -15 -39 -5 -39 -5
-20 13 19 19 123 91 130 91 2 0 4 -18 4 -40z m-705 -71 c39 -124 39 -123 -57
-155 -46 -14 -89 -31 -96 -37 -7 -5 -15 -7 -18 -4 -4 3 15 25 41 49 102 93
115 106 115 117 0 18 -65 13 -120 -9 -27 -11 -50 -16 -50 -12 0 15 134 132
152 132 4 0 19 -36 33 -81z m684 -25 c-25 -27 -116 -84 -134 -84 -16 0 -35 79
-21 87 15 10 81 20 135 22 l44 1 -24 -26z m-729 -13 c0 -4 -18 -20 -40 -35
-23 -15 -58 -43 -79 -62 l-39 -34 -10 28 c-5 16 -7 34 -3 41 8 12 138 70 159
71 6 0 12 -4 12 -9z m782 -32 c3 -17 0 -32 -6 -34 -6 -2 -31 -10 -56 -16 l-45
-13 34 -5 c32 -6 33 -7 15 -23 -11 -9 -48 -31 -84 -49 -36 -17 -105 -62 -155
-99 -96 -71 -299 -187 -292 -167 9 28 158 141 237 180 68 34 91 51 116 87 19
29 41 48 62 55 18 5 32 15 32 22 0 13 107 92 126 92 7 1 14 -13 16 -30z m18
-113 c0 -37 -16 -47 -105 -62 -42 -7 -81 -23 -57 -24 7 0 45 5 83 11 39 6 73
9 75 6 7 -7 -66 -56 -161 -109 -77 -42 -81 -43 -107 -28 -16 8 -27 20 -25 25
11 32 257 215 289 215 5 0 8 -15 8 -34z m-710 4 c-34 -26 -100 -51 -94 -36 8
20 68 56 94 56 l25 0 -25 -20z m-120 -27 c-54 -45 -64 -52 -78 -53 -30 0 -3
34 47 61 64 34 77 31 31 -8z m139 0 c-8 -9 -52 -40 -98 -70 -76 -49 -85 -53
-100 -39 -20 21 -14 26 104 80 116 52 111 51 94 29z m64 -24 c5 -18 -6 -26
-81 -61 -48 -22 -95 -47 -104 -55 -32 -29 -19 2 15 34 30 29 144 103 158 103
4 0 9 -9 12 -21z m47 -47 c0 -13 -39 -46 -101 -85 -62 -39 -76 -54 -62 -68 5
-5 24 -1 46 11 20 11 43 20 49 20 7 0 47 20 88 44 41 24 79 42 83 39 5 -3 -2
-12 -15 -21 -13 -9 -61 -49 -107 -89 -46 -40 -90 -73 -98 -73 -41 0 -167 89
-150 107 4 3 58 32 119 64 107 55 148 69 148 51z m44 -31 c6 -9 -57 -50 -98
-65 -20 -7 -20 -7 0 15 19 22 73 59 86 59 4 0 9 -4 12 -9z m546 -19 c0 -26 -8
-32 -100 -76 -110 -53 -160 -58 -64 -7 34 18 79 50 100 72 45 46 64 50 64 11z
m-445 -113 c-37 -34 -45 -47 -40 -66 5 -23 5 -23 -90 -23 l-95 0 133 68 c72
38 133 67 135 66 2 -1 -17 -21 -43 -45z m116 38 c-1 -4 -1 -13 -1 -21 0 -19
-61 -56 -91 -56 -22 0 -20 5 24 46 42 40 70 53 68 31z m333 -18 c16 -83 9 -89
-114 -89 -76 0 -120 7 -120 19 1 7 199 99 216 100 6 1 14 -13 18 -30z"/>
<path d="M3445 3564 c-89 -19 -216 -81 -277 -134 -53 -46 -173 -231 -215 -331
-22 -54 -27 -79 -27 -164 -1 -97 0 -102 40 -185 51 -105 93 -162 141 -194 50
-33 330 -143 413 -163 105 -24 207 -14 312 31 187 81 280 161 313 268 23 73
30 199 16 287 -31 197 -147 420 -254 488 -59 37 -260 103 -332 108 -34 3 -90
-2 -130 -11z m-27 -66 c-5 -17 -64 -44 -113 -53 -38 -6 -39 -5 -23 10 14 15
108 54 131 55 5 0 7 -6 5 -12z m241 1 c41 -15 39 -25 -6 -33 -61 -10 -73 -7
-73 12 0 34 23 40 79 21z m131 -38 c0 -5 -6 -12 -12 -14 -10 -4 -10 -7 0 -15
10 -7 3 -18 -29 -46 -54 -46 -76 -52 -124 -32 -51 22 -81 20 -140 -8 -78 -36
-151 -100 -174 -150 -10 -24 -30 -51 -43 -60 -32 -21 -108 -38 -149 -34 -32 3
-29 5 42 31 87 32 119 52 119 74 0 13 -9 15 -62 9 -34 -4 -84 -16 -112 -27
l-50 -19 20 21 c14 14 50 26 107 37 77 14 87 19 95 42 8 21 35 36 153 86 79
34 159 65 177 69 32 7 33 6 23 -14 -11 -20 -9 -21 29 -21 49 0 84 16 76 35 -3
8 5 21 17 30 24 17 37 19 37 6z m-254 -19 c-3 -5 -30 -14 -60 -21 -37 -8 -55
-18 -59 -30 -3 -12 -37 -31 -98 -55 -52 -21 -103 -48 -114 -60 -19 -22 -101
-53 -112 -43 -2 3 4 25 15 49 18 40 91 118 111 118 5 0 16 3 25 6 35 13 13
-14 -24 -31 -56 -25 -63 -40 -15 -32 21 3 56 20 77 37 33 27 39 29 44 15 4 -9
10 -13 13 -8 8 12 150 61 179 62 13 1 21 -3 18 -7z m359 -21 c7 -12 0 -16 -80
-46 -74 -28 -76 -18 -7 26 47 30 76 36 87 20z m22 -109 c-23 -13 -33 -20 -22
-16 48 16 52 15 57 -4 3 -12 16 -22 29 -24 14 -2 25 -11 27 -22 3 -12 0 -16
-8 -11 -6 4 -30 -2 -53 -13 -23 -10 -55 -22 -72 -26 l-30 -6 39 35 c48 43 39
44 -30 5 l-53 -30 -29 43 c-16 23 -32 48 -36 55 -5 9 10 20 49 37 78 35 87 31
35 -16 -44 -40 -45 -40 -10 -23 19 9 55 32 79 51 l45 34 12 -23 c12 -21 10
-25 -29 -46z m-342 -28 c12 -9 30 -12 48 -8 87 19 163 -153 155 -353 -3 -87
-7 -107 -27 -135 -20 -29 -18 -28 17 8 25 26 45 58 52 85 6 24 14 55 18 68 5
18 23 30 71 48 35 13 66 22 68 19 2 -2 -23 -25 -56 -51 -70 -53 -84 -91 -28
-73 90 29 93 21 12 -33 -44 -30 -85 -54 -91 -54 -6 0 -28 -16 -50 -34 -110
-97 -274 -105 -363 -19 -57 56 -75 103 -75 193 0 171 27 245 115 315 55 43 98
51 134 24z m465 -98 c0 -19 -6 -24 -34 -29 -18 -3 -59 -17 -90 -31 -31 -14
-62 -26 -69 -26 -21 0 27 39 93 75 78 42 100 44 100 11z m-850 -10 c0 -8 -161
-68 -167 -62 -12 11 13 27 73 46 56 18 94 24 94 16z m785 -56 c-9 -15 -87 -66
-112 -74 -17 -6 -23 -3 -23 9 0 10 24 27 63 45 66 32 82 36 72 20z m85 -18 c0
-26 -5 -29 -97 -59 -53 -18 -92 -28 -87 -23 14 14 167 109 177 110 4 0 7 -13
7 -28z m-825 -21 c-6 -5 -63 -27 -127 -50 -107 -37 -118 -39 -118 -22 0 30 32
60 75 70 53 12 182 14 170 2z m14 -46 c-16 -16 -100 -35 -86 -19 10 11 66 32
87 33 12 1 12 -1 -1 -14z m831 -4 c0 -26 -55 -67 -122 -92 l-53 -20 40 36 c36
32 124 95 132 95 2 0 3 -9 3 -19z m-878 -57 c-13 -9 -59 -29 -104 -45 -44 -17
-89 -34 -99 -40 -31 -16 -25 35 6 55 34 22 120 45 175 45 43 1 44 1 22 -15z
m48 -34 c-21 -39 -57 -53 -195 -75 -64 -10 -32 10 85 54 124 47 124 47 110 21z
m860 -10 c0 -11 -6 -22 -12 -24 -7 -1 -34 -10 -60 -18 -27 -9 -48 -12 -48 -7
0 5 6 9 13 9 6 0 28 14 47 30 41 35 60 38 60 10z m0 -70 c0 -25 -6 -32 -47
-50 -75 -34 -195 -81 -228 -91 -28 -8 -29 -7 -10 7 10 8 62 37 115 64 52 27
111 60 130 74 19 14 36 25 38 26 1 0 2 -13 2 -30z m-905 12 c-21 -18 -156 -72
-180 -72 -46 0 -28 28 28 45 115 34 171 44 152 27z m62 -29 c7 -19 -34 -34
-110 -39 l-72 -5 75 30 c78 31 101 34 107 14z m-8 -48 c-3 -2 -49 -20 -102
-39 -93 -34 -97 -35 -107 -16 -9 17 -5 20 31 30 86 23 190 38 178 25z m621 -3
c0 -10 -122 -83 -128 -77 -10 9 33 48 73 66 45 21 55 23 55 11z m-573 -38 c4
-13 -51 -30 -126 -39 -43 -6 -52 -4 -49 6 3 8 27 17 55 21 27 4 60 12 74 17
27 11 41 9 46 -5z m718 7 c-26 -22 -307 -203 -337 -215 l-33 -14 35 -4 c35 -3
34 -4 -41 -40 -75 -38 -160 -51 -174 -29 -5 9 90 50 118 52 7 0 4 4 -7 8 -15
6 -11 10 23 26 41 18 54 35 27 35 -7 0 -50 -9 -96 -21 -45 -11 -84 -18 -87
-15 -3 2 17 16 44 29 35 19 44 27 32 32 -10 3 -31 -4 -52 -18 -19 -13 -63 -34
-97 -47 -55 -21 -65 -22 -103 -10 -51 15 -41 21 78 43 111 21 141 33 125 52
-10 12 -9 15 6 14 11 0 35 -6 54 -13 28 -10 39 -10 62 1 42 22 88 33 88 22 0
-23 60 -5 156 47 58 31 117 60 132 64 37 11 58 12 47 1z m85 4 c0 -3 -6 -21
-14 -39 -17 -41 -69 -79 -112 -82 -18 -2 -56 -15 -84 -29 -67 -34 -83 -28 -28
12 153 109 238 159 238 138z m-820 -60 c0 -7 -70 -41 -124 -59 -37 -13 -52
-14 -62 -5 -25 20 -15 38 24 44 20 3 53 10 72 15 40 9 90 12 90 5z m88 -24
c10 -6 8 -10 -10 -14 -34 -10 -68 -8 -68 2 0 8 20 15 55 19 6 1 16 -2 23 -7z
m52 -56 c-7 -8 -27 -15 -44 -14 l-31 1 40 18 c43 20 55 19 35 -5z m616 -20
c-39 -60 -152 -118 -300 -155 -154 -39 -155 -21 -3 54 61 30 148 69 193 86 44
16 89 36 100 44 25 19 30 2 10 -29z m-696 31 c0 -2 -28 -20 -61 -40 -47 -28
-69 -35 -90 -31 -26 6 -57 31 -48 39 10 9 199 40 199 32z m102 -127 c-24 -11
-53 -19 -65 -17 -16 3 -9 8 28 20 69 23 89 21 37 -3z"/>
<path d="M5107 3569 c-13 -8 -17 -18 -12 -37 10 -47 -23 -139 -110 -307 -47
-91 -85 -172 -86 -182 0 -10 -20 -56 -44 -103 l-43 -85 -40 85 c-22 47 -72
182 -111 300 -104 312 -97 297 -134 310 -39 13 -244 25 -281 16 -32 -8 -33
-27 -4 -67 12 -16 64 -134 116 -262 84 -206 103 -265 168 -522 40 -159 78
-300 84 -313 13 -30 54 -27 58 5 4 24 20 28 170 39 97 6 103 4 82 -37 -9 -16
-7 -19 13 -19 18 0 28 10 45 48 11 26 24 63 28 82 8 41 42 111 95 195 47 74
329 727 329 761 0 30 -25 32 -34 2 l-7 -23 -9 22 c-8 19 -19 22 -97 28 -121 9
-125 13 -12 14 71 1 100 5 108 15 10 12 8 17 -11 27 -30 17 -236 24 -261 8z
m-746 -81 c-29 -13 -47 -16 -53 -10 -19 19 3 32 50 31 l47 -1 -44 -20z m174
-40 c8 -28 13 -53 11 -55 -2 -2 -32 -3 -67 -1 l-64 4 43 18 c29 13 42 25 42
39 0 18 -5 19 -46 13 -30 -4 -43 -2 -38 5 9 14 44 28 76 28 24 1 29 -5 43 -51z
m789 31 c26 -6 44 -15 39 -20 -4 -4 -63 -10 -130 -12 l-121 -4 10 29 10 29 73
-5 c40 -3 93 -10 119 -17z m-904 -44 c0 -5 -55 -35 -65 -35 -16 0 -1 29 18 33
35 7 47 7 47 2z m951 -27 c-8 -20 -15 -23 -62 -22 -30 1 -74 7 -99 15 l-45 13
55 7 c30 3 78 6 107 7 50 2 52 1 44 -20z m-146 -32 c76 -13 76 -20 0 -30 -140
-20 -164 -46 -60 -67 58 -11 86 -28 53 -30 -135 -9 -178 -8 -178 6 0 8 15 44
32 81 30 60 35 65 58 59 14 -4 57 -12 95 -19z m-761 -14 c5 -8 -55 -42 -74
-42 -21 0 -10 39 13 43 39 8 56 7 61 -1z m867 -15 c-6 -8 -20 -41 -31 -73 -11
-32 -41 -110 -67 -171 l-47 -113 -81 0 c-44 0 -87 5 -95 10 -13 9 -13 10 1 10
24 0 142 50 159 66 13 14 13 17 -4 30 -11 8 -42 14 -72 14 -77 0 -95 10 -48
26 21 7 41 11 45 8 9 -5 100 16 112 26 4 4 -14 3 -40 -1 -78 -13 -155 -11
-151 4 3 8 35 13 102 15 79 2 97 5 92 17 -3 9 5 16 24 20 38 8 59 33 39 46 -8
5 -25 9 -39 9 -35 0 -70 11 -70 21 0 4 27 11 59 15 33 3 72 14 88 24 31 19 42
18 24 -3z m-767 -29 c6 -26 4 -27 -48 -33 -30 -4 -62 -3 -71 2 -13 8 -5 15 42
41 32 17 61 28 64 24 4 -4 9 -19 13 -34z m-55 -74 c-12 -14 -61 -44 -73 -44
-3 0 -10 9 -16 20 -9 17 -7 22 12 30 13 5 38 9 57 9 29 1 32 -1 20 -15z m99
-33 c3 -10 0 -12 -12 -8 -9 4 -25 1 -36 -5 -24 -15 -37 -4 -20 17 16 19 61 16
68 -4z m-9 -57 c11 -10 -93 -45 -116 -40 -34 9 -26 39 12 47 28 5 95 1 104 -7z
m49 -46 c3 -16 -5 -18 -54 -18 -62 0 -63 1 -19 25 37 19 69 16 73 -7z m455 -8
c26 0 47 -4 47 -9 0 -9 -172 -71 -197 -71 -8 0 -9 9 -3 31 15 50 29 62 70 55
19 -3 56 -6 83 -6z m-492 -54 c-17 -20 -68 -39 -86 -32 -8 3 -15 12 -15 20 0
14 24 21 84 25 23 1 26 -2 17 -13z m59 -42 c0 -13 -4 -24 -10 -24 -5 0 -10 5
-10 11 0 13 -17 9 -72 -15 -20 -9 -39 -12 -42 -7 -7 10 114 71 127 64 4 -2 7
-15 7 -29z m373 -25 c37 -7 67 -15 67 -19 0 -4 -25 -14 -55 -22 -33 -9 -55
-11 -55 -5 0 5 -16 7 -39 4 -22 -3 -42 -3 -45 0 -2 3 0 18 6 35 8 23 15 28 32
24 11 -3 51 -10 89 -17z m-376 -27 c16 -10 -83 -66 -103 -58 -26 10 -16 45 14
52 15 3 32 7 37 9 18 6 40 5 52 -3z m471 -29 c-3 -17 -67 -55 -79 -47 -9 5
-139 -12 -161 -21 -27 -11 -23 20 4 39 16 11 47 16 103 16 54 1 86 5 99 15 26
20 38 19 34 -2z m-428 -18 c0 -8 -6 -15 -12 -15 -7 0 -24 -3 -38 -7 -25 -6
-25 -6 -6 15 22 25 56 29 56 7z m420 -48 c0 -34 -46 -45 -119 -31 -44 9 -38
20 17 32 69 14 102 14 102 -1z m-440 -6 c0 -9 -111 -43 -118 -36 -7 7 10 26
32 35 28 11 86 12 86 1z m55 -41 c0 -9 -8 -14 -20 -13 -11 1 -35 -5 -53 -13
-33 -16 -54 -12 -36 6 37 36 109 49 109 20z m247 5 c40 -9 76 -19 81 -24 10
-10 -156 -34 -198 -29 -55 6 -41 68 16 68 15 0 61 -7 101 -15z m84 -72 c-13
-27 -17 -28 -87 -26 -115 2 -116 2 -99 13 18 10 144 38 178 39 21 1 22 0 8
-26z m-430 -8 c-23 -17 -36 -19 -36 -6 0 11 18 19 40 20 11 0 10 -3 -4 -14z
m135 0 c0 -13 -41 -19 -41 -7 0 11 20 22 33 18 5 -1 8 -6 8 -11z m144 -44 l30
-6 -35 -16 c-37 -18 -180 -32 -180 -18 0 6 38 22 100 43 20 6 48 5 85 -3z
m-200 -21 c-22 -10 -46 -19 -53 -19 -8 -1 -12 -9 -10 -18 2 -13 15 -19 48 -22
l45 -4 -45 -11 c-34 -9 -46 -17 -48 -34 -4 -23 9 -29 78 -35 l35 -3 -37 -17
c-74 -34 -80 -31 -99 53 -10 41 -18 80 -19 85 0 6 26 18 58 27 77 21 95 20 47
-2z m276 -36 c-12 -15 -21 -33 -21 -40 0 -9 -12 -14 -36 -14 -20 0 -74 -8
-120 -17 -58 -12 -87 -14 -94 -7 -7 7 26 21 107 43 65 18 127 40 138 47 34 24
49 17 26 -12z m-21 -98 c0 -26 -35 -57 -75 -66 -37 -8 -200 -2 -191 7 7 7 229
71 249 72 9 1 17 -5 17 -13z"/>
<path d="M8923 3565 c-120 -27 -236 -89 -305 -161 -46 -49 -159 -235 -189
-312 -18 -46 -23 -78 -23 -162 -1 -102 0 -107 37 -180 41 -83 99 -164 137
-192 37 -27 313 -137 399 -159 113 -29 204 -25 296 11 244 97 334 183 365 349
32 172 -28 416 -145 593 -63 94 -115 130 -265 179 -142 46 -216 55 -307 34z
m-33 -74 c-10 -19 -45 -34 -110 -45 -32 -6 -34 -5 -18 10 14 14 108 53 131 54
4 0 3 -9 -3 -19z m249 8 c44 -16 39 -25 -19 -33 -59 -8 -70 -3 -63 24 6 23 33
26 82 9z m131 -38 c0 -5 -6 -12 -12 -14 -10 -4 -10 -8 1 -15 10 -7 2 -19 -39
-51 -58 -46 -65 -47 -117 -26 -52 22 -82 19 -149 -15 -81 -40 -142 -95 -164
-146 -11 -24 -29 -49 -42 -58 -32 -21 -108 -38 -149 -34 -31 3 -26 6 54 36 76
29 107 52 107 78 0 11 -121 -6 -172 -26 -26 -10 -48 -15 -48 -10 0 15 66 39
138 51 63 10 72 15 80 38 8 22 34 36 157 89 82 35 162 66 178 69 27 6 29 5 18
-16 -11 -20 -10 -21 29 -21 49 0 84 16 76 35 -3 8 5 21 17 30 24 17 37 19 37
6z m-264 -20 c-3 -5 -23 -12 -43 -16 -48 -9 -73 -22 -73 -39 0 -7 -43 -30 -95
-50 -60 -24 -102 -47 -111 -61 -9 -13 -30 -26 -50 -30 -20 -3 -43 -9 -51 -12
-13 -5 -15 -1 -9 23 16 63 79 129 144 149 38 11 24 -11 -18 -30 -55 -25 -63
-40 -16 -32 20 3 55 20 76 37 30 24 40 28 40 16 0 -9 5 -16 10 -16 6 0 10 4
10 8 0 4 17 13 38 19 20 6 55 18 77 27 45 17 79 21 71 7z m362 -20 c9 -5 -6
-16 -48 -34 -34 -15 -66 -27 -72 -27 -17 0 20 37 55 54 37 18 47 19 65 7z m56
-57 c10 -27 7 -33 -29 -48 -40 -17 -48 -31 -9 -16 35 14 41 13 47 -9 2 -11 15
-21 28 -23 13 -1 25 -11 27 -20 2 -13 -1 -16 -12 -12 -9 3 -22 2 -29 -3 -15
-13 -109 -44 -114 -39 -2 2 13 18 34 35 48 39 28 40 -35 1 l-47 -30 -23 28
c-13 15 -30 39 -38 55 l-15 28 53 24 c75 35 90 31 43 -10 -38 -33 -38 -35 -10
-23 17 7 48 27 70 45 46 37 51 39 59 17z m-369 -80 c12 -9 30 -12 48 -8 41 9
71 -17 106 -88 39 -84 54 -168 49 -278 -3 -72 -9 -96 -27 -122 -17 -25 -12
-22 18 11 25 26 45 60 51 85 21 88 22 89 85 113 33 13 63 22 68 20 5 -1 -19
-24 -52 -50 -38 -29 -61 -54 -61 -67 0 -18 2 -18 41 -5 23 8 51 15 63 15 16 0
11 -6 -21 -24 -23 -14 -58 -36 -77 -51 -19 -15 -41 -28 -49 -29 -8 -1 -32 -17
-53 -35 -62 -55 -118 -76 -205 -76 -67 0 -81 3 -125 30 -38 24 -56 45 -82 95
-32 62 -34 69 -28 145 11 177 35 234 125 302 47 36 93 43 126 17z m465 -99 c0
-21 -5 -25 -27 -25 -16 0 -57 -14 -91 -30 -35 -17 -69 -30 -74 -30 -23 0 30
44 92 76 80 41 100 43 100 9z m-865 -14 c-11 -10 -133 -61 -147 -61 -16 0 -7
20 14 31 45 24 151 48 133 30z m780 -67 c-37 -31 -105 -67 -112 -60 -14 13 11
38 59 60 70 32 91 32 53 0z m103 0 c-3 -24 -13 -30 -95 -59 -51 -17 -93 -29
-93 -26 0 7 171 110 183 111 5 0 7 -12 5 -26z m-823 -23 c-6 -5 -63 -27 -127
-50 l-118 -41 0 24 c0 30 31 57 78 66 55 11 178 12 167 1z m15 -45 c-16 -16
-101 -35 -87 -20 10 11 66 32 87 33 13 1 13 -1 0 -13z m830 1 c0 -28 -74 -81
-147 -107 -27 -10 -27 -9 7 21 47 42 123 98 133 99 4 0 7 -6 7 -13z m-878 -63
c-12 -8 -57 -28 -101 -44 -43 -15 -88 -33 -100 -39 -19 -11 -21 -9 -21 13 0
15 9 31 23 40 31 21 124 45 177 45 43 1 44 0 22 -15z m48 -34 c-18 -33 -53
-50 -141 -65 -100 -18 -96 -18 -82 -4 9 9 206 86 226 88 4 1 3 -8 -3 -19z
m860 -10 c0 -11 -6 -22 -12 -24 -7 -1 -34 -10 -60 -18 -27 -9 -48 -12 -48 -7
0 4 8 10 18 13 11 4 29 18 42 31 29 31 60 33 60 5z m0 -69 c0 -28 -6 -32 -122
-81 -149 -63 -211 -78 -128 -31 30 17 84 47 120 66 36 18 79 43 95 54 17 12
31 21 33 21 1 0 2 -13 2 -29z m-975 -22 c-84 -40 -135 -50 -135 -25 0 14 38
29 140 55 74 19 72 8 -5 -30z m130 1 c0 -19 -78 -41 -135 -38 l-45 3 75 27
c81 29 105 31 105 8z m-20 -48 c-9 -7 -109 -47 -167 -65 -23 -8 -47 21 -27 34
8 5 19 9 24 9 6 1 37 7 70 15 70 16 113 19 100 7z m635 0 c0 -9 -123 -82 -129
-76 -9 8 36 48 74 65 44 21 55 23 55 11z m-573 -39 c4 -11 -49 -26 -136 -39
-34 -5 -42 -3 -39 7 3 8 27 17 55 21 27 4 60 12 74 17 28 11 41 9 46 -6z m713
10 c-1 -10 -278 -191 -329 -215 -36 -17 -36 -17 -8 -18 40 0 28 -12 -48 -49
-65 -31 -147 -42 -160 -22 -3 5 18 18 47 29 29 11 60 22 68 25 9 3 6 6 -10 7
-20 0 -16 4 23 22 46 20 61 38 33 38 -8 0 -52 -9 -97 -20 -46 -11 -85 -18 -87
-15 -2 2 16 14 42 27 25 12 46 26 46 30 0 16 -41 8 -62 -12 -12 -11 -52 -32
-90 -46 -61 -25 -72 -26 -108 -15 -44 13 -45 31 -2 31 33 0 147 24 186 39 23
9 26 14 16 26 -10 12 -9 15 6 14 11 0 34 -6 53 -13 29 -10 39 -10 70 6 27 14
48 17 81 13 41 -6 55 -1 145 46 125 66 185 89 185 72z m80 -16 c0 -42 -104
-127 -127 -104 -3 4 -26 -4 -52 -17 -60 -31 -96 -42 -87 -27 9 14 244 171 256
171 6 0 10 -10 10 -23z m-810 -43 c0 -9 -125 -63 -154 -66 -20 -2 -32 3 -43
19 -14 21 -13 22 34 28 26 4 62 11 78 15 36 10 85 12 85 4z m88 -23 c10 -6 8
-10 -10 -14 -34 -10 -68 -8 -68 2 0 8 20 15 55 19 6 1 16 -2 23 -7z m52 -56
c-7 -8 -27 -15 -44 -14 l-31 1 40 18 c43 20 55 19 35 -5z m625 -3 c-11 -36
-80 -88 -161 -122 -78 -33 -209 -70 -245 -70 -38 0 -17 22 49 52 37 17 78 39
92 49 14 9 62 29 106 44 44 14 98 37 120 49 44 26 48 25 39 -2z m-708 10 c-3
-4 -34 -22 -69 -41 -59 -32 -66 -33 -93 -20 -50 24 -40 35 47 51 100 18 121
20 115 10z m100 -123 c-21 -11 -48 -19 -60 -17 -16 3 -9 8 28 20 67 22 78 21
32 -3z"/>
<path d="M9108 2523 c7 -3 16 -2 19 1 4 3 -2 6 -13 5 -11 0 -14 -3 -6 -6z"/>
<path d="M5985 3560 c-66 -13 -221 -85 -281 -130 -62 -47 -107 -104 -125 -158
-7 -20 -18 -46 -25 -57 -24 -39 -45 -131 -51 -230 -5 -94 -4 -105 25 -190 79
-229 73 -217 126 -253 27 -18 60 -35 75 -38 14 -4 47 -20 72 -35 60 -38 153
-58 306 -66 140 -7 223 5 295 44 84 46 91 59 89 165 -2 62 -7 101 -17 115
l-14 23 -42 -28 c-39 -25 -50 -27 -182 -32 -147 -5 -199 4 -291 52 -49 26 -95
88 -95 127 0 4 82 13 183 20 225 16 398 37 442 55 29 13 35 21 45 70 9 45 8
73 -5 148 -23 133 -31 160 -68 214 -40 61 -127 113 -252 153 -108 34 -156 41
-210 31z m35 -50 c-8 -5 -26 -9 -40 -9 -23 0 -23 1 -5 9 11 5 29 9 40 9 17 1
17 -1 5 -9z m153 -21 c49 -13 47 -29 -3 -29 -22 0 -40 -4 -40 -9 0 -5 -21 -12
-46 -16 -26 -3 -53 -9 -62 -12 -9 -4 -13 -1 -10 7 2 7 27 21 56 32 29 11 52
24 52 29 0 11 6 11 53 -2z m-306 -49 c44 0 23 -17 -65 -54 -110 -45 -125 -46
-82 -1 19 19 38 35 43 35 5 0 20 9 35 20 17 14 29 17 36 10 5 -5 20 -10 33
-10z m414 9 c42 -15 95 -53 110 -81 10 -18 9 -20 -8 -16 -11 3 -28 1 -38 -5
-10 -5 -38 -11 -63 -13 l-44 -3 28 30 c16 16 34 27 41 25 7 -3 13 1 13 9 0 12
-12 14 -60 10 -33 -2 -68 -9 -79 -15 -31 -16 -36 -12 -15 11 14 17 72 59 80
59 1 0 16 -5 35 -11z m-191 -39 c0 -16 -75 -49 -119 -51 -22 -2 -41 -7 -41
-11 0 -11 -61 -48 -78 -48 -7 0 -10 5 -7 11 5 7 -3 10 -21 8 -16 -1 -42 -1
-58 -1 -41 3 -17 28 35 36 22 3 42 12 45 19 2 7 27 13 57 15 29 2 75 9 102 17
62 16 85 18 85 5z m120 -48 c0 -16 -51 -32 -100 -32 -69 0 -62 14 13 27 87 14
87 14 87 5z m-235 -42 c-3 -5 -13 -10 -21 -10 -8 0 -14 5 -14 10 0 6 9 10 21
10 11 0 17 -4 14 -10z m-271 -14 c-4 -11 -45 -36 -59 -36 -15 0 -1 22 23 34
34 19 43 20 36 2z m569 -14 c-41 -20 -56 -23 -65 -14 -6 6 -9 15 -5 18 8 9 66
22 97 22 19 1 13 -5 -27 -26z m149 17 c18 -10 48 -65 48 -89 0 -20 -64 -38
-138 -38 -40 -1 -70 2 -68 6 2 4 32 21 66 37 55 26 59 30 39 37 -13 5 -43 6
-67 2 -32 -5 -43 -4 -38 5 4 6 15 11 24 12 9 0 35 9 57 19 49 22 51 23 77 9z
m-297 -29 c31 -12 64 -53 71 -88 l7 -32 -182 0 c-140 0 -181 3 -181 13 0 23
30 56 74 82 70 41 146 50 211 25z m-289 -19 c-24 -25 -32 -28 -53 -20 -15 5
-40 5 -66 0 -37 -9 -57 -8 -46 3 10 10 137 45 163 45 l30 1 -28 -29z m464 -31
c-28 -22 -46 -25 -56 -9 -9 15 15 29 51 29 l30 0 -25 -20z m-610 -20 c19 -12
8 -21 -57 -48 -52 -20 -53 -20 -53 -1 0 44 69 75 110 49z m96 -26 c-3 -9 -6
-25 -6 -37 0 -16 -7 -22 -22 -24 -13 0 -52 -4 -88 -8 -36 -4 -63 -5 -60 -3 3
3 36 24 74 47 73 43 113 53 102 25z m679 -35 c8 -38 -5 -49 -55 -48 l-35 1 33
14 c39 17 44 39 6 30 -74 -19 -86 -15 -29 8 33 14 63 25 67 25 3 1 9 -13 13
-30z m-395 -39 c0 -5 -4 -10 -9 -10 -5 0 -8 -7 -7 -17 0 -10 -17 -25 -49 -41
-27 -14 -45 -27 -38 -29 6 -2 39 10 73 27 49 25 60 35 55 49 -8 25 25 38 41
16 10 -13 23 -14 83 -7 69 8 99 -1 44 -14 -60 -13 -129 -35 -153 -48 -24 -14
-23 -14 18 -9 25 3 42 2 42 -4 0 -11 -21 -20 -95 -45 l-40 -13 33 -3 c18 -2
46 3 62 11 16 9 38 13 49 10 10 -3 35 3 55 12 20 10 44 15 55 12 10 -2 29 2
42 9 29 16 53 18 44 4 -8 -13 36 -13 68 -1 20 8 27 6 31 -6 4 -9 3 -20 -1 -24
-13 -11 -110 -29 -163 -29 -27 0 -60 -4 -75 -10 -33 -12 -365 -22 -365 -11 0
11 38 26 113 45 75 19 87 30 22 20 -27 -4 -60 -8 -72 -7 -12 0 -24 -5 -27 -12
-3 -8 -13 -11 -24 -8 -12 3 -28 -3 -39 -14 -26 -25 -88 -53 -119 -53 -38 0
-21 16 31 29 37 9 45 15 45 35 0 17 9 27 30 36 43 18 46 30 8 30 -22 0 -61
-17 -118 -51 -47 -28 -101 -53 -121 -56 -33 -5 -36 -3 -42 23 -3 16 -3 41 0
55 4 24 10 27 70 33 36 4 68 4 71 2 3 -3 -17 -15 -43 -26 -38 -16 -46 -23 -36
-33 9 -9 23 -5 63 17 29 16 66 32 82 36 19 3 32 13 34 24 4 16 -1 17 -47 11
-32 -4 -51 -3 -51 3 0 15 26 22 83 23 29 1 66 4 82 8 54 11 205 13 205 1z
m400 -61 c0 -5 -17 -9 -37 -9 -38 0 -38 0 -13 13 26 14 50 12 50 -4z m-215
-15 c-27 -7 -51 -11 -54 -9 -9 9 63 32 83 27 16 -4 9 -9 -29 -18z m-457 -176
c3 -23 -1 -26 -38 -30 -58 -5 -68 11 -22 38 45 27 56 25 60 -8z m-103 13 c-20
-17 -109 -41 -119 -31 -11 11 -2 15 59 29 54 12 71 13 60 2z m25 -71 l65 -1
-59 -24 c-60 -25 -96 -50 -96 -67 0 -5 39 -6 89 -2 49 4 98 4 108 0 17 -7 17
-8 -2 -23 -19 -14 -18 -15 15 -8 19 4 43 13 54 21 18 12 46 9 46 -6 0 -6 -59
-27 -100 -36 -3 0 -18 -6 -33 -12 -35 -15 -50 -15 -41 -1 3 6 -7 4 -22 -4 -86
-43 -113 -29 -140 69 l-17 64 23 25 c16 17 27 22 34 15 5 -5 39 -10 76 -10z
m123 -38 c10 -10 14 -22 10 -25 -3 -4 -40 -7 -82 -7 l-76 1 45 24 c54 29 82
31 103 7z m593 -94 c4 -6 -5 -21 -21 -35 -15 -13 -25 -26 -23 -29 3 -2 11 2
17 10 15 18 41 10 41 -13 0 -9 -16 -32 -35 -51 -19 -19 -35 -40 -35 -47 0 -11
-29 -33 -45 -33 -3 0 5 21 19 48 14 28 21 54 17 65 -6 17 -11 15 -51 -18 -50
-42 -67 -69 -27 -42 33 21 37 21 37 -1 0 -22 -35 -57 -72 -71 -28 -10 -99 -8
-118 4 -5 3 -10 1 -10 -4 0 -13 -106 -15 -114 -2 -3 4 6 13 19 19 15 7 25 20
25 32 0 24 4 25 41 3 27 -16 31 -16 57 -1 33 20 132 101 128 105 -1 2 -37 -15
-80 -37 -43 -22 -82 -38 -87 -35 -15 10 -10 35 6 29 9 -4 29 9 52 32 31 32 53
43 118 61 93 24 131 28 141 11z m-426 -9 c0 -16 -90 -53 -102 -41 -7 7 0 17
23 31 36 22 79 28 79 10z m170 -16 c0 -7 -153 -100 -182 -111 -15 -6 42 72 60
82 48 27 122 44 122 29z m-357 -30 c-13 -8 -23 -24 -23 -34 0 -14 7 -17 38
-14 33 3 109 26 167 50 13 6 6 -8 -22 -42 -63 -74 -54 -105 18 -67 42 21 46
12 8 -20 -37 -31 -60 -29 -181 15 -83 29 -138 63 -138 82 0 13 90 44 130 45
l25 1 -22 -16z m619 -115 c-6 -6 -15 -7 -22 -3 -8 5 -6 13 7 27 16 18 18 19
21 3 2 -9 -1 -22 -6 -27z"/>
<path d="M5970 3080 c0 -5 -9 -10 -19 -10 -10 0 -29 -9 -42 -20 l-24 -20 55
16 c88 24 87 24 70 34 -20 13 -40 12 -40 0z"/>
<path d="M6227 2493 c-4 -3 -7 -11 -7 -17 0 -6 5 -5 12 2 6 6 9 14 7 17 -3 3
-9 2 -12 -2z"/>
<path d="M11780 2668 c-7 -18 -15 -79 -17 -134 -5 -101 -5 -102 20 -119 21
-13 39 -16 79 -11 29 4 89 10 133 14 l80 7 0 90 c-1 63 -6 104 -19 138 l-19
47 -122 0 -123 0 -12 -32z m130 -26 c0 -14 -54 -60 -74 -64 -29 -5 -30 19 -2
47 23 23 76 35 76 17z m110 -12 c0 -10 -92 -41 -100 -33 -3 3 6 13 19 24 24
20 81 26 81 9z m10 -60 c0 -23 -53 -60 -85 -60 -16 0 -12 8 22 40 47 45 63 50
63 20z m-113 -33 c-61 -54 -62 -72 -4 -63 23 4 54 15 69 26 32 24 38 25 38 6
0 -8 -9 -17 -19 -21 -11 -3 -18 -12 -15 -19 4 -10 -17 -16 -78 -23 -46 -6 -86
-8 -90 -6 -15 8 -8 61 10 82 15 19 102 60 127 60 6 0 -11 -19 -38 -42z"/>
<path d="M4781 2411 c-94 -7 -115 -23 -54 -41 32 -10 49 -9 103 7 59 17 95 45
53 41 -10 -1 -56 -4 -102 -7z"/>
</g>
</svg>
